<svg xmlns="http://www.w3.org/2000/svg" viewBox="0 0 4896.17 2906.48"><defs><style>.cls-1,.cls-5{opacity:0.3;}.cls-2,.cls-5{fill:#fff;}.cls-3{opacity:0.1;}.cls-4{fill:#e5e5e5;}.cls-6{fill:#ffe2b3;}.cls-7{fill:#f3786c;}.cls-8{fill:#ffc448;}.cls-9{fill:#1ea3a3;}.cls-10{fill:#e2e2e2;}.cls-11{fill:#bcdfbf;}.cls-12{fill:#e32e34;}.cls-13{fill:#e8e8e8;}.cls-14{fill:#ffd65d;}.cls-15{fill:#589742;}.cls-16{fill:#467437;}.cls-17{fill:#6fbe44;}.cls-18{fill:#5c9b43;}.cls-19{fill:#d79128;}.cls-20{fill:#fcaf17;}.cls-21{fill:#80c351;}.cls-22{fill:#945d25;}.cls-23{fill:#171717;}.cls-24{fill:#7f1918;}.cls-25{fill:#f2e0ce;}.cls-26{fill:#0294ad;}.cls-27{fill:#7c481d;}.cls-28{fill:#059eb9;}.cls-29{fill:#0492ab;}.cls-30{fill:#1c3665;}.cls-31{fill:#743216;}.cls-32{fill:#873d1d;}.cls-33{fill:#6e3616;}.cls-34{fill:#882473;}.cls-35{fill:#fcf2cb;opacity:0.8;}.cls-36{fill:#092140;}.cls-37{fill:#010101;}.cls-38{fill:#e9ecf1;}.cls-39{fill:#d3dbe9;}.cls-40{fill:#c5cedd;}.cls-41{fill:#1e1e1e;}.cls-42{fill:#1d4463;}.cls-43{fill:#f4e6cf;}.cls-44{fill:#e2cdbb;}.cls-45{fill:#3a3a3a;}.cls-46{fill:#f6892e;}.cls-47{fill:#e2e9f1;}.cls-48{fill:#00293a;}.cls-49{fill:#f04d44;}.cls-50{fill:#f2e3cd;}.cls-51{fill:#282724;}.cls-52{fill:#fff0d8;}.cls-53{fill:#f29798;}.cls-54{fill:#191919;}.cls-55,.cls-58,.cls-61{opacity:0.05;}.cls-56{fill:#9edcf2;opacity:0.5;}.cls-57{fill:#fff9ee;}.cls-59{fill:#a63f41;}.cls-60{fill:#ffce37;}.cls-61,.cls-63{fill:#050606;}.cls-62{fill:#f4c022;}.cls-63{opacity:0.2;}.cls-64{fill:#fee450;}.cls-65{fill:#572f0f;}.cls-66{fill:#4a4a4a;}.cls-67{fill:#fed8af;}.cls-68{fill:#b8ae39;}.cls-69{fill:#a69d35;}.cls-70{fill:#968f34;}.cls-71{fill:#73421a;}.cls-72{fill:#d7d6d6;}.cls-73{fill:#e9e8e8;}.cls-74{fill:#b7b7b8;}.cls-75{fill:#e8d6c1;}.cls-76{fill:#911a1d;}.cls-77{fill:#a86730;}.cls-78{fill:#333;}.cls-79{fill:#923f20;}.cls-80{fill:#194967;}.cls-81{fill:#bb3026;}.cls-82{fill:#a04a23;}.cls-83{fill:#099ecb;}.cls-84{fill:#606161;}.cls-85{fill:#0887a6;}.cls-86{fill:#9d6b29;}.cls-87{fill:#7d551c;}.cls-88{fill:#895b24;}.cls-89{fill:#0e374c;}.cls-90{fill:#7c471d;}</style></defs><title>Asset 2</title><g id="Layer_2" data-name="Layer 2"><g id="Layer_4" data-name="Layer 4"><g class="cls-1"><path class="cls-2" d="M4239.78,2843.66q2-26.82,3.26-53.72,2.35-49.16,2.35-98.42a2055.69,2055.69,0,0,0-41.45-411.18,2029.57,2029.57,0,0,0-307-729.54,2046.2,2046.2,0,0,0-897.64-739.17,2029.37,2029.37,0,0,0-383-118.88,2060.06,2060.06,0,0,0-822.34,0,2028.9,2028.9,0,0,0-729.54,307,2045.85,2045.85,0,0,0-739.18,897.63,2029.59,2029.59,0,0,0-118.88,383,2055,2055,0,0,0-41.46,411.18q0,49.47,2.37,98.87,1.27,26.45,3.21,52.84l9.25.67q-2-27-3.32-54.18-2.32-48.81-2.34-98.2c0-1119.94,911.13-2031.06,2031-2031.06s2031.07,911.12,2031.07,2031.06q0,49.16-2.32,97.76-1.32,27.61-3.38,55Z"/></g><g class="cls-1"><path class="cls-2" d="M4006.86,2321a1829.44,1829.44,0,0,0-276.78-657.78A1844,1844,0,0,0,2921,997a1829,1829,0,0,0-345.35-107.2,1855.57,1855.57,0,0,0-741,0,1829.65,1829.65,0,0,0-657.78,276.77,1844,1844,0,0,0-666.18,809A1829.73,1829.73,0,0,0,403.47,2321a1852.3,1852.3,0,0,0-37.36,370.53q0,43.59,2,87.15,1.8,38.2,5.16,76.28c63.19,2.93,133.44,5.7,210,8.29q-4.86-46-7.1-92.86-1.89-39.2-1.89-78.86c0-899.26,731.6-1630.84,1630.84-1630.84S3836,1792.26,3836,2691.52q0,39.55-1.89,78.65-2.22,47-7.12,93.27c76.46-2.56,146.71-5.31,210-8.22q3.38-38.34,5.18-76.84,2-43.38,2-86.86A1852.31,1852.31,0,0,0,4006.86,2321Z"/></g><ellipse class="cls-3" cx="2304.49" cy="2818.21" rx="2304.49" ry="88.27"/><path class="cls-2" d="M4416.23,2816.69c0,4.72-15.29,9.33-44.41,13.79-29.93,4.57-74.48,9-132,13.18l-9.25.67c-54,3.82-118.95,7.47-193.52,10.89-63.29,2.91-133.54,5.66-210,8.22-403.25,13.53-979.31,22-1618.89,22-642.71,0-1221.28-8.55-1624.81-22.2-76.56-2.59-146.81-5.36-210-8.29-74.83-3.47-139.76-7.17-193.54-11l-9.25-.67q-9.21-.69-18-1.38C54.08,2834.06,0,2825.57,0,2816.69s54.42-17.42,153.46-25.23q6.78-.54,13.85-1.07l9.14-.67c53.2-3.88,117.51-7.58,191.7-11,62.58-2.93,132.18-5.7,208.06-8.29,403.82-13.78,985.42-22.44,1631.91-22.44,643.35,0,1222.43,8.56,1626,22.23,75.79,2.57,145.39,5.31,208.06,8.21,74,3.43,138.26,7.07,191.72,10.9l9.13.66c55.67,4.11,98.92,8.42,128.27,12.88S4416.23,2811.93,4416.23,2816.69Z"/><rect class="cls-2" y="2716.02" width="4416.23" height="100.67"/><path class="cls-4" d="M4416.24,2716c0,4.72-15.3,9.33-44.42,13.79-205.06,31.36-1095.86,55-2163.7,55-934.29,0-1733.06-18.07-2055.58-43.59C54.08,2733.39,0,2724.9,0,2716s54.42-17.42,153.46-25.23c323.12-25.49,1121.26-43.52,2054.66-43.52,1067,0,1957.17,23.55,2163.19,54.88C4400.77,2706.64,4416.24,2711.26,4416.24,2716Z"/><path class="cls-5" d="M601.1,341.31a69.16,69.16,0,0,0-105.82-48.86A95.81,95.81,0,0,0,330,282.13a47,47,0,0,0-7.46-.6,46.29,46.29,0,0,0-45.24,56.05,57,57,0,0,0-48.46,56.2h0a57,57,0,0,0,56.82,56.82H579.36a57,57,0,0,0,56.82-56.82h0A57,57,0,0,0,601.1,341.31Z"/><path class="cls-5" d="M4833.52,712.12h-2.88c0-.64,0-1.28,0-1.93a114.46,114.46,0,0,0-215.47-53.83,61.58,61.58,0,0,0-80.27,26.46,61.31,61.31,0,1,0-52.82,110.39,62.88,62.88,0,0,0,62.15,54.69h289.26a62.83,62.83,0,0,0,62.65-62.65V774.78A62.84,62.84,0,0,0,4833.52,712.12Z"/><path class="cls-5" d="M3448.1,153.62h-396a54.76,54.76,0,0,1,73.73-75.85,55,55,0,0,1,71.68-23.63A102.23,102.23,0,0,1,3390,102.23c0,.57,0,1.14,0,1.72h2.56A56.14,56.14,0,0,1,3448.1,153.62Z"/><path class="cls-2" d="M3273.29,397.89v2270a26.42,26.42,0,0,1-26.41,26.41H1451a26.42,26.42,0,0,1-26.41-26.41v-2270a26.4,26.4,0,0,1,26.41-26.4H3246.88A26.4,26.4,0,0,1,3273.29,397.89Z"/><path class="cls-6" d="M3273.29,371.49V484.76H1424.55V371.49A26.4,26.4,0,0,1,1451,345.08H3246.88A26.4,26.4,0,0,1,3273.29,371.49Z"/><rect class="cls-2" x="1511.81" y="388.22" width="1319.06" height="53.4" rx="19.37"/><circle class="cls-7" cx="2947.84" cy="414.92" r="22.62"/><circle class="cls-8" cx="3021.76" cy="414.92" r="22.62"/><circle class="cls-9" cx="3095.68" cy="414.92" r="22.62"/><rect class="cls-6" x="1504.28" y="2340.78" width="1702.18" height="290.59"/><rect class="cls-10" x="1504.28" y="1282.66" width="514.97" height="347.16"/><rect class="cls-10" x="1504.28" y="1989.16" width="320.85" height="270.52"/><rect class="cls-10" x="1898.14" y="1989.16" width="320.85" height="270.52"/><rect class="cls-10" x="2292" y="1989.16" width="320.85" height="270.52"/><rect class="cls-10" x="2097.89" y="1282.66" width="514.97" height="347.16"/><rect class="cls-10" x="2691.49" y="1282.66" width="514.97" height="347.16"/><rect class="cls-11" x="1632.46" y="1705.95" width="980.39" height="42.76"/><rect class="cls-11" x="1504.28" y="1769.99" width="1108.57" height="42.76"/><rect class="cls-11" x="1504.28" y="1834.03" width="1108.57" height="42.76"/><rect class="cls-11" x="1504.28" y="1898.08" width="948.15" height="42.76"/><rect class="cls-12" x="1504.28" y="562.31" width="1190" height="643.9"/><rect class="cls-12" x="2741.31" y="560.58" width="219.09" height="170.36"/><polygon class="cls-2" points="2830.86 602.44 2830.86 684.36 2888.39 643.39 2830.86 602.44"/><rect class="cls-13" x="2991.8" y="562.23" width="214.66" height="40.04"/><rect class="cls-13" x="2991.8" y="623.37" width="214.66" height="40.04"/><rect class="cls-12" x="2741.31" y="798.22" width="219.09" height="170.36"/><rect class="cls-13" x="2991.8" y="798.22" width="214.66" height="40.04"/><rect class="cls-13" x="2991.8" y="859.37" width="214.66" height="40.04"/><rect class="cls-12" x="2741.31" y="1035.85" width="219.09" height="170.36"/><rect class="cls-13" x="2991.8" y="1035.85" width="214.66" height="40.04"/><rect class="cls-13" x="2991.8" y="1097" width="214.66" height="40.04"/><path class="cls-2" d="M1663.63,1010.67V774.41H1726L1775.1,861a686,686,0,0,1,38.56,81h1c-3.5-31.19-4.55-63.09-4.55-98.49V774.41h49.07v236.26h-56.09l-50.47-91.14c-14-25.24-29.45-55.73-41-83.43l-1.06.35c1.41,31.2,2.11,64.5,2.11,103.06v71.16Z"/><path class="cls-2" d="M2046.06,910.77h-86.93v56.08h97.1v43.82H1905.5V774.41h145.82v43.82h-92.19V867.3h86.93Z"/><path class="cls-2" d="M2133.34,1010.67l-56.08-236.26h57.13l17.88,97.45c5.26,28,10.16,58.54,14,82.37h.7c3.86-25.59,9.47-54,15.42-83.07l20-96.75h56.78L2278.11,874c5.26,27.69,9.11,52.93,12.62,79.22h.7c3.5-26.29,8.76-54,13.67-82l19.28-96.75h54.33l-61,236.26h-57.84L2239.9,909c-4.56-23.83-8.41-45.92-11.22-72.91h-.7c-4.2,26.64-8.06,49.08-13.67,72.91l-22.43,101.66Z"/><path class="cls-2" d="M2405.35,955.63c14.37,7.37,36.46,14.73,59.24,14.73,24.54,0,37.51-10.17,37.51-25.59,0-14.72-11.22-23.14-39.61-33.3-39.26-13.67-64.85-35.41-64.85-69.76,0-40.31,33.65-71.15,89.39-71.15,26.64,0,46.27,5.6,60.29,11.91l-11.92,43.12A112.29,112.29,0,0,0,2486,814.37c-23.13,0-34.35,10.52-34.35,22.79,0,15.07,13.32,21.73,43.82,33.3,41.71,15.42,61.34,37.15,61.34,70.45,0,39.61-30.5,73.26-95.34,73.26-27,0-53.63-7-67-14.37Z"/><polygon class="cls-2" points="2830.86 841.57 2830.86 923.49 2888.39 882.53 2830.86 841.57"/><polygon class="cls-2" points="2830.86 1080.71 2830.86 1162.63 2888.39 1121.67 2830.86 1080.71"/><rect class="cls-14" x="2694.28" y="1706.19" width="241.24" height="170.36"/><rect class="cls-13" x="2970.1" y="1706.19" width="236.36" height="40.04"/><rect class="cls-13" x="2970.1" y="1771.35" width="236.36" height="40.04"/><rect class="cls-13" x="2970.1" y="1835.39" width="236.36" height="40.04"/><rect class="cls-14" x="2694.28" y="1919.69" width="241.24" height="170.36"/><rect class="cls-13" x="2970.1" y="1919.69" width="236.36" height="40.04"/><rect class="cls-13" x="2970.1" y="1984.85" width="236.36" height="40.04"/><rect class="cls-13" x="2970.1" y="2048.89" width="236.36" height="40.04"/><rect class="cls-13" x="2696.72" y="2134.22" width="509.74" height="57.04"/><rect class="cls-13" x="2696.72" y="2206.33" width="509.74" height="53.35"/><path class="cls-15" d="M297.12,2453.2c-9.1,4.75-40.75,40.39-44.2,11.87s17.87-21.31,17.87-21.31c31.34,8.46,54.22-25.7,54.22-25.7.2-6.34-2.21-14.41-5.59-22.47-.25-.6-.5-1.2-.76-1.8-7.34-16.82-18.41-33.08-18.41-33.08-12.85,24.13-67.38,66.75-72.71,53.9s9.09-17.24,9.09-17.24c50.77-10.65,52.65-47.94,52.65-47.94a26.68,26.68,0,0,0-5.25-7.89c-.42-.47-.85-.93-1.3-1.4-13.43-13.92-40.77-28.63-40.77-28.63-1.88,27.89-21.32,42-21.32,42-33.53,1.88-15.66-19.12-15.66-19.12,26-6.89,23.81-32.27,23.81-32.27-1.82,0-4.39-1-7.33-2.59l-1.55-.88c-11.65-6.81-27.79-21.29-27.79-21.29-1.23,11.1-14,14.92-14.4,15,3.45-1.92,5-18.79,5-18.79a22,22,0,0,1-3.5-2.06l-1.47-1.08c-8.17-6.17-20.44-18.72-26-24.51-1.8-1.9-2.89-3.07-2.89-3.07a5.54,5.54,0,0,1,.21,1.6,13.82,13.82,0,0,1-.52,3.42c-2,8-9.74,21.22-15.79,30.83-.35.57-.71,1.13-1.06,1.67-3.77,5.94-6.66,10.12-6.66,10.12,9.72,24.44,51.08,16.61,33.53,37.82s-42.62-24-42.62-24c.48,2.79-2.36,8.39-6.53,14.79-.36.56-.73,1.11-1.11,1.67-3.06,4.55-6.68,9.42-10.18,13.92-.39.5-.78,1-1.16,1.49-6.88,8.74-13,15.76-13,15.76s3.13,26,40.11,34.79,31.66,16,31.66,16c-36.36,15.67-74.6-40.74-74.6-40.74-7.56,8.21-13.65,19-18.44,29.87-.26.6-.53,1.21-.78,1.81a235.11,235.11,0,0,0-13.37,43.09c34.79,47.8,54.22,23.33,71.14,23.33s25.38,5,25.38,9.71-4.07,20.37-37,20.37-62.37-33.53-62.37-33.53a332.32,332.32,0,0,0,10.66,47.12l.63,2c39.67,122.67,127.78,39.16,139.17,27.67.8-.8,1.23-1.26,1.23-1.26a16.94,16.94,0,0,0,.55,2.75h0a24.49,24.49,0,0,0,1.62,4.29h0a26,26,0,0,0,12.24,12.07c32.66,16,110.63-5.64,107.18-44.25a101.57,101.57,0,0,1,.29-20.4l.24-2a124.81,124.81,0,0,1,17-47.89S306.2,2448.46,297.12,2453.2Zm-58.92,12.11c-1.53,2.92-7,3.09-12.18.36s-8.16-7.3-6.62-10.22,7-3.09,12.18-.37S239.73,2462.38,238.2,2465.31Zm-62.07-5.73c-7.57,3.76-15.57,3.06-17.87-1.57s2-11.41,9.57-15.17,15.57-3.06,17.86,1.57S183.7,2455.82,176.13,2459.58Zm-7.18-56.8c-.26-3,4.7-5.94,11.1-6.51s11.8,1.43,12.06,4.46-4.69,5.94-11.09,6.51S169.23,2405.82,169,2402.78Zm70.91-61.35c2.43-5.94,6.68-9.82,9.51-8.67s3.15,6.91.72,12.86-6.69,9.82-9.51,8.66S237.43,2347.38,239.86,2341.43Zm-89.47,190.64c-12,4.9-23.2,5.18-25.07.62s6.33-12.25,18.31-17.15,23.2-5.18,25.06-.62S162.37,2527.16,150.39,2532.07Zm99.49-22.72c-1.16,5-7.56,7.84-14.28,6.29s-11.25-6.89-10.09-11.91,7.56-7.85,14.29-6.29S251,2504.32,249.88,2509.35Z"/><g class="cls-1"><path class="cls-2" d="M319.58,2484.62l-.24,2c-35.44,8.86-62.3,7.68-80.06,4.43-19.47-3.57-31.34-10-36-13-.72-.47-1.27-.84-1.66-1.11-.69.63-1.39,1.26-2.1,1.87C187.3,2489.39,172,2497.3,154,2502.36c-15.46,4.34-33,6.61-52,6.74h-1.74a287.08,287.08,0,0,1-43.13-3.39l-.63-2a282.7,282.7,0,0,0,45.53,3.51c29.21-.2,69.66-5.8,97.65-31,.43-.39.85-.77,1.26-1.16l.58-.54.63.48s.44.34,1.28.88c3.77,2.49,15.93,9.6,36.4,13.33C257.42,2492.44,284.2,2493.58,319.58,2484.62Z"/></g><g class="cls-1"><path class="cls-2" d="M319.42,2395.59a195.23,195.23,0,0,1-29.69,19.63c-15.39,8.16-30.83,13.23-45.85,15.05-20.3,2.46-34.17-1.6-39.41-3.57-.92-.34-1.57-.62-1.95-.79l-1.77.59a139.94,139.94,0,0,1-43.23,7.05,125.06,125.06,0,0,1-18.77-1.39,135.67,135.67,0,0,1-48.52-17.38A160.46,160.46,0,0,1,62,2393.64c.25-.6.52-1.21.78-1.81a158.88,158.88,0,0,0,28.5,21.38c23.71,13.84,61.85,26.94,109.47,11.35l1.57-.53.36-.12.35.16s.52.25,1.45.61c4.39,1.71,18.57,6.27,39.35,3.72,18.14-2.22,44.34-10.36,74.87-34.61C318.92,2394.39,319.17,2395,319.42,2395.59Z"/></g><g class="cls-1"><path class="cls-2" d="M284,2341.54a110.45,110.45,0,0,1-12.47,12.14,97.29,97.29,0,0,1-62.39,22.63,83.89,83.89,0,0,1-11.08-.69c-1.24-.18-2-.33-2.29-.38q-.81,0-1.62,0c-39.7-.9-66.76-14.77-82.54-26.35A118.09,118.09,0,0,1,97,2336.17c.38-.5.77-1,1.16-1.49a115.81,115.81,0,0,0,14.67,12.74c15.49,11.34,42,24.93,80.91,25.92l2.19,0,.18,0s.55.12,1.53.27a92.69,92.69,0,0,0,37.74-2.89c13.76-3.93,31.29-12.44,47.36-30.65C283.18,2340.61,283.61,2341.07,284,2341.54Z"/></g><g class="cls-1"><path class="cls-2" d="M221.46,2299.52A48.18,48.18,0,0,1,203.7,2319a52.33,52.33,0,0,1-20.08,7.24c-.77.1-1.35.16-1.71.18q-.76.89-1.56,1.71c-9.25,9.78-19.39,14.72-30.2,14.72-.78,0-1.57,0-2.35-.08-16-1-30.15-12.34-39.47-22,.38-.56.75-1.11,1.11-1.67,9.14,9.53,23.08,20.82,38.49,21.83,11.37.74,22-4.23,31.73-14.79.37-.4.74-.81,1.1-1.23l.26-.29.4,0s.6,0,1.58-.16a51,51,0,0,0,19.8-7.06,46,46,0,0,0,17.11-18.73Z"/></g><g class="cls-1"><path class="cls-2" d="M179.22,2271.53a42.27,42.27,0,0,1-12.94,8.45c-.81.34-1.38.54-1.64.62a15.37,15.37,0,0,1-1.7,1,24.59,24.59,0,0,1-11.63,2.55c-6.21,0-13.05-1.58-19.59-3.79.35-.54.71-1.1,1.06-1.67,10.61,3.55,21.85,5.33,29.45,1.18a15.44,15.44,0,0,0,1.46-.9l.13-.09.13,0s.62-.2,1.63-.6a40,40,0,0,0,10.64-6.46c.53-.44,1-.9,1.53-1.36Z"/></g><path class="cls-16" d="M203.36,2475.9c0,.73-.07,1.45-.12,2.17-.59,11.79-1.33,23.58-2,34.87-.56,8.94-1.11,17.77-1.57,26.23h0c-1.62,29.58-2.13,54.67,2,64.29l-3.42,1.47c-4.72-11-3.92-38.24-2-71.55.39-6.67.82-13.6,1.26-20.68.68-11,1.4-22.43,2-33.88l.13-2.59c.87-17.2,1.42-34.32,1.14-49.74,0-.65,0-1.3,0-1.94-.1-4.07-.25-8-.48-11.81-.67-11.31-2.87-24.13-6-37.54-.14-.62-.29-1.24-.45-1.87-3.58-14.8-8.29-30.26-13.38-45.21l-.69-2c-5.49-16-11.38-31.32-16.72-44.5-.24-.58-.47-1.16-.71-1.73-5.57-13.7-10.49-25-13.66-32a13.82,13.82,0,0,0,.52-3.42,5.54,5.54,0,0,0-.21-1.6s1.09,1.17,2.89,3.07c3.16,7,8.14,18.4,13.81,32.33.24.57.47,1.14.7,1.71,5.33,13.17,11.21,28.46,16.72,44.45.21.6.41,1.21.62,1.81,5.35,15.66,10.3,31.92,14,47.44.15.65.31,1.29.46,1.94a225.11,225.11,0,0,1,5.86,36.92c.23,3.89.39,7.95.49,12.14l0,2C204.74,2442,204.2,2458.91,203.36,2475.9Z"/><path class="cls-17" d="M125.1,2410.59a124.91,124.91,0,0,1,8.2,50.17c0,.65-.07,1.32-.11,2a101.59,101.59,0,0,1-3.35,20.12c-10.28,37.38,62.58,72.58,97.57,62.65a25.89,25.89,0,0,0,14.19-9.7,0,0,0,0,0,0,0,24.57,24.57,0,0,0,2.36-3.92h0a16.72,16.72,0,0,0,1-2.6s.34.52,1,1.46c9.16,13.33,81,111.21,141.87-2.42l1-1.84A332.64,332.64,0,0,0,407.72,2482s-35,27.74-67.35,21.87-33.59-22-32.75-26.63,10.06-8.05,26.71-5,31.41,30.56,74.16-10.28a234.91,234.91,0,0,0-5.47-44.78c-.14-.63-.29-1.27-.45-1.91-2.77-11.53-6.84-23.26-12.82-32.68,0,0-47.68,48.69-80.66,26.79,0,0-3.95-8.05,34-10.09s45.67-27.07,45.67-27.07-4.75-8-10-17.83c-.28-.55-.58-1.11-.87-1.67-2.64-5.06-5.34-10.49-7.53-15.52-.28-.61-.54-1.22-.79-1.83-3-7-4.77-13.06-3.79-15.73,0,0-32.74,40.05-46.23,16.05s25.82-8.92,39.74-31.23c0,0-2.1-4.64-4.75-11.15-.25-.59-.5-1.21-.74-1.83-4.24-10.54-9.47-24.95-10.05-33.16a14.07,14.07,0,0,1,.11-3.45,5.19,5.19,0,0,1,.49-1.53s-1.28,1-3.4,2.5c-6.48,4.71-20.79,14.87-29.93,19.48-.57.29-1.12.56-1.64.8a20.84,20.84,0,0,1-3.81,1.4s-1.48,16.89,1.57,19.39c-.37-.18-12.26-6.21-11.49-17.36,0,0-18.46,11.37-31.14,16-.58.22-1.14.41-1.68.59-3.18,1-5.88,1.57-7.68,1.24,0,0-6.68,24.59,17.68,36,0,0,13.84,23.85-18.82,16,0,0-16.61-17.35-13.49-45.13,0,0-29.53,9.6-45.22,20.91-.53.38-1,.76-1.54,1.14a26.82,26.82,0,0,0-6.56,6.83s-4.8,37,43.26,56.56c0,0,13.4,6.9,5.87,18.59s-53.6-40-61.94-66c0,0-13.79,14-24,29.28-.37.54-.72,1.08-1.08,1.63-4.76,7.33-8.56,14.84-9.5,21.11,0,0,16.42,37.69,48.77,34.95,0,0,22.25-3.29,13.78,24.16s-33.27-13.27-41.37-19.56S125.1,2410.59,125.1,2410.59Zm100.07,36.79c5.59-1.76,10.93-.62,11.92,2.53s-2.75,7.13-8.34,8.88-10.94.63-11.92-2.53S219.58,2449.13,225.17,2447.38Zm47.05-2.32c3.08-4.14,11.07-3.41,17.86,1.64s9.78,12.5,6.7,16.64-11.08,3.4-17.86-1.65S269.14,2449.2,272.22,2445.06Zm11.22-35.74c-6.2-1.7-10.56-5.45-9.75-8.38s6.48-3.94,12.66-2.24,10.56,5.45,9.76,8.39S289.63,2411,283.44,2409.32Zm-49.16-62.73c-3,.63-6.49-4-7.82-10.22s0-11.89,3-12.52,6.49,3.94,7.82,10.23S237.26,2346,234.28,2346.59Zm42.09,170.88c2.65-4.15,13.65-1.88,24.56,5.08s17.6,16,14.95,20.14-13.64,1.88-24.55-5.08S273.72,2521.63,276.37,2517.47Zm-66.85-29.88c6.9-.33,12.69,3.59,12.94,8.74s-5.15,9.6-12.05,9.92-12.69-3.58-12.93-8.74S202.62,2487.92,209.52,2487.59Z"/><g class="cls-1"><path class="cls-2" d="M133.3,2460.76c0,.65-.07,1.32-.11,2,33.29,15,59.93,18.66,78,18.63,19.8,0,32.63-4.25,37.78-6.33.79-.33,1.4-.59,1.83-.79.56.74,1.14,1.48,1.73,2.21,10.11,12.57,23.74,23.07,40.59,31.27,14.44,7,31.26,12.38,50,15.91l1.71.32a286.66,286.66,0,0,0,43,4.35l1-1.84a283,283,0,0,1-45.43-4.67c-28.7-5.41-67.5-18.12-90.56-47.91l-1-1.37-.47-.63-.7.36s-.5.26-1.42.64c-4.15,1.78-17.39,6.6-38.2,6.62C193.07,2479.53,166.53,2475.88,133.3,2460.76Z"/></g><g class="cls-1"><path class="cls-2" d="M149.33,2373.18a195.27,195.27,0,0,0,25.72,24.61c13.69,10.78,28,18.51,42.44,23,19.53,6,33.9,4.51,39.4,3.51,1-.18,1.67-.34,2.06-.43l1.64.89a140.06,140.06,0,0,0,41.29,14.65,125.42,125.42,0,0,0,18.71,2,135.56,135.56,0,0,0,50.84-8.45A159.59,159.59,0,0,0,403,2417.16c-.14-.63-.29-1.27-.45-1.91a158.71,158.71,0,0,1-31.85,15.95c-25.79,9.39-65.66,15.48-109.74-8.35l-1.45-.8-.33-.19-.38.11s-.55.15-1.53.34c-4.62.89-19.39,2.85-39.39-3.36-17.44-5.42-41.78-18.11-67.49-47.4C150,2372.09,149.69,2372.63,149.33,2373.18Z"/></g><g class="cls-1"><path class="cls-2" d="M193.79,2326.3a110.15,110.15,0,0,0,10.11,14.17,97.34,97.34,0,0,0,57.36,33.4,83.49,83.49,0,0,0,11,1.29c1.25.05,2,0,2.31,0l1.6.26c39.23,6.19,68.33-2.63,85.92-11.21a118.41,118.41,0,0,0,16.67-9.88c-.28-.55-.58-1.11-.87-1.67a115.39,115.39,0,0,1-16.71,9.91c-17.26,8.41-45.77,17-84.23,11.09l-2.16-.35h-.18s-.57,0-1.56,0a92.68,92.68,0,0,1-36.62-9.57c-12.84-6.32-28.57-17.81-41.13-38.6C194.8,2325.54,194.29,2325.92,193.79,2326.3Z"/></g><g class="cls-1"><path class="cls-2" d="M262.86,2296.11a48.12,48.12,0,0,0,14,22.33,52.52,52.52,0,0,0,18.46,10.72c.74.23,1.31.39,1.66.48.4.66.81,1.32,1.23,2,7.35,11.27,16.45,17.94,27.09,19.87.77.14,1.54.25,2.32.34,15.93,1.83,31.87-6.77,42.77-14.63-.28-.61-.54-1.22-.79-1.83-10.7,7.74-26.43,16.37-41.77,14.61-11.32-1.3-20.94-8.09-28.59-20.21-.29-.45-.58-.93-.86-1.4l-.21-.34-.38-.09s-.59-.14-1.53-.44A51.09,51.09,0,0,1,278,2317a46,46,0,0,1-13.5-21.49C264,2295.74,263.4,2295.93,262.86,2296.11Z"/></g><g class="cls-1"><path class="cls-2" d="M309.41,2276.1a42,42,0,0,0,11.23,10.63c.73.47,1.26.77,1.5.9a16.93,16.93,0,0,0,1.49,1.32,24.56,24.56,0,0,0,11,4.58c6.12,1.1,13.13.77,20-.24-.25-.59-.5-1.21-.74-1.83-11.08,1.6-22.46,1.35-29.2-4.09a15.32,15.32,0,0,1-1.27-1.15l-.11-.11-.13-.06s-.57-.3-1.49-.89a40,40,0,0,1-9.32-8.24q-.66-.81-1.26-1.62C310.48,2275.59,309.93,2275.86,309.41,2276.1Z"/></g><path class="cls-18" d="M249.22,2472.9c-.09.72-.19,1.44-.27,2.15-1.52,11.71-2.9,23.44-4.21,34.67-1.05,8.9-2.08,17.69-3.13,26.09a0,0,0,0,1,0,0c-3.68,29.4-7.65,54.18-13.43,62.91l3.1,2.05c6.6-10,10.68-36.92,14.71-70,.81-6.64,1.62-13.53,2.45-20.58,1.28-10.92,2.62-22.32,4.08-33.69l.33-2.57c2.22-17.08,4.73-34,7.75-49.15.14-.64.27-1.27.39-1.9.82-4,1.68-7.85,2.57-11.53,2.68-11,7.14-23.23,12.65-35.86.26-.59.51-1.17.78-1.76,6.16-13.93,13.56-28.3,21.23-42.1l1-1.85C307.5,2315,316,2301,323.63,2289l1-1.58c7.93-12.49,14.78-22.68,19.15-29.07a14.07,14.07,0,0,1,.11-3.45,5.19,5.19,0,0,1,.49-1.53s-1.28,1-3.4,2.5c-4.35,6.35-11.29,16.65-19.35,29.34-.33.52-.67,1-1,1.57-7.6,12-16.11,26-24.38,40.75-.31.56-.62,1.12-.94,1.68-8.05,14.45-15.82,29.57-22.24,44.17l-.79,1.83a226.6,226.6,0,0,0-12.36,35.28q-1.38,5.7-2.64,11.87c-.13.65-.26,1.32-.4,2C253.91,2439.29,251.42,2456,249.22,2472.9Z"/><path class="cls-19" d="M272,2717.27H158.54A11.64,11.64,0,0,1,147,2706.9l-11.05-101.47a11.63,11.63,0,0,1,11.56-12.89H283.09a11.64,11.64,0,0,1,11.57,12.89L283.6,2706.9A11.64,11.64,0,0,1,272,2717.27Z"/><rect class="cls-20" x="121.85" y="2592.54" width="188.5" height="33.51" rx="8.34"/><path class="cls-21" d="M4333.56,2480.13c-.12,6.6-13.48,74.46-129.71,118.74,0,0,15.26-26.25,57.69-56.17,41.47-29.23,68.65-53.8,71.57-62a4.71,4.71,0,0,0,.16-.55C4333.44,2479.42,4333.57,2479.45,4333.56,2480.13Z"/><path class="cls-21" d="M4207.57,2607.5h0c-1.12-.54-73.48-35.2-87.58-50.35-14.71-15.79-28-40.4-39.46-57.88-5.89-9-11.28-16.09-16.12-19.13-.27-.17-.55-.34-.82-.48C4066.4,2481.13,4157.39,2529.38,4207.57,2607.5Z"/><path class="cls-21" d="M4352,2422.7s-21.17,16.25-25.34,24.11c-7.94,15-34.59,32.45-65,46.09-18.81,8.42-28.6,15.25-59.21,54l.05-.08c1.46-2.86,33.34-64.16,76.56-83.53,44.26-19.84,38.15-32.36,48.22-37.24S4352,2422.7,4352,2422.7Z"/><path class="cls-21" d="M4205.74,2562.59c-18-25.94-56.47-45.78-67.16-52.49s-24.42-23.2-36-42.43-52.2-26.86-52.2-26.86c38.16-9.77,69.9,10.68,77.53,22.89s22.59,28.39,44.26,44.26S4205.74,2562.59,4205.74,2562.59Z"/><path class="cls-21" d="M4348.34,2333c-.91,20.76-20.44,66.84-61,86.07-40,18.93-79.92,58-81.16,59.18a.05.05,0,0,1,0,0c.43-.51.87-1.08,1.32-1.72,8.79-12.45,22-48.33,70.65-72.37C4329.43,2378.73,4348.34,2333,4348.34,2333Z"/><path class="cls-21" d="M4050.12,2364.77c-1-.11-1.58-.15-1.58-.15A6.39,6.39,0,0,1,4050.12,2364.77Z"/><path class="cls-21" d="M4207.57,2492.21s-17.09,9.11-78.91-60.66c-41.43-46.77-63.55-60.88-73.48-65.12l-.07,0a26.14,26.14,0,0,0-5-1.62c10,1.12,64.13,9.14,91.49,54.18,30.18,49.7,54.59,66.51,65.89,73.25Z"/><path class="cls-21" d="M4321.11,2309.22a.1.1,0,0,1,0,0l0,.1c-1.21,2.74-20.93,47-37.79,68.54-17.25,22.11-72.08,54.43-72.94,54.93.35-.64,21.31-38.32,51-58.29S4320.65,2309.92,4321.11,2309.22Z"/><path class="cls-21" d="M4211.86,2439.2h0c-1.65-.28-54.9-9.57-93.66-62.45-39.38-53.72-20.15-58-52.2-91l0,0c1.21.69,40.1,23.24,68.34,84.84C4134.33,2370.65,4154.48,2409.78,4211.86,2439.2Z"/><path class="cls-21" d="M4268,2335.57c-13,13.13-47.51,47.42-53.33,53.19h0l0,0-.81.8s0-.24.11-.71c.89-5.77,8.11-45.26,41.72-70.25,35.75-26.59,50.5-69.59,51-70.93a0,0,0,0,0,0,0C4307.58,2283.68,4282.24,2321.22,4268,2335.57Z"/><path class="cls-21" d="M4214.68,2396a.11.11,0,0,1-.07,0c-2.17-.91-48.67-20.83-70.44-63.45-22.27-43.63-29.9-64.38-42.7-74.77h0c1.28.75,42.14,24.95,64.37,79.34,0,0,9.44,20.11,48.71,58.79Z"/><path class="cls-21" d="M4216.69,2346.07c-3.45-3-30.49-27.48-48.47-67.44-19.21-42.68-25.63-57-33.25-60.12a32.94,32.94,0,0,1,4.69,1.48l.26.11c10.67,4.19,35.88,18.44,49.36,62.19,12.34,40.05,21.14,55.53,25.22,61.15A20.94,20.94,0,0,0,4216.69,2346.07Z"/><path class="cls-21" d="M4217,2346.37h0s0,0,0,0Z"/><path class="cls-21" d="M4265.61,2210.11s0,.07,0,.11A.82.82,0,0,1,4265.61,2210.11Z"/><path class="cls-21" d="M4251.41,2284.59c-30.05,39.67-35,46.34-35.1,46.54v0a244.84,244.84,0,0,1,25-57.51c17.23-28.92,26.08-55.89,24.54-62.7l-.06-.18a2.26,2.26,0,0,0-.17-.5C4266.61,2212.33,4281,2245.61,4251.41,2284.59Z"/><path class="cls-22" d="M4213.63,2661.71a15,15,0,0,1-1-1.74c-.3-.54-.48-1-.71-1.52l-.65-1.49c-.19-.5-.36-1-.54-1.48-.34-1-.74-2-1-2.95l-.86-3-.44-1.48c-.13-.49-.24-1-.36-1.47l-.7-3c-.22-1-.49-2-.67-3l-.55-3-.55-3c-.19-1-.38-2-.51-3l-.84-5.93-.42-3-.3-3-.61-5.94-.3-3-.21-3-.39-5.94c-.12-2-.28-4-.38-5.94l-.2-5.94-.21-5.93c-.06-2-.16-4-.14-5.94l-.06-11.86c0-31.62,2.07-63.13,4.92-94.53,1.32-15.71,3-31.35,4.39-47s2.82-31.35,3.92-47c.27-3.93.6-7.85.8-11.78l.64-11.78c.28-7.85.61-15.71.27-23.55,0-2-.2-3.92-.36-5.87s-.43-3.9-.68-5.84-.65-3.87-1-5.81-.75-3.86-1.09-5.8a201.4,201.4,0,0,1-2.5-23.49,199.55,199.55,0,0,0,3,23.4c.37,1.93.78,3.85,1.2,5.77s.81,3.87,1.14,5.81.65,3.9.8,5.87.43,3.93.49,5.91c.5,7.88.34,15.77.22,23.65l-.4,11.82c-.13,3.94-.38,7.87-.56,11.8-.79,15.74-1.86,31.46-3,47.17s-2.43,31.42-3.43,47.1c-2.2,31.37-3.58,62.81-3,94.17l.3,11.75c0,2,.16,3.91.26,5.87l.32,5.86.32,5.86c.14,1.95.33,3.89.5,5.84l.5,5.83.26,2.92.36,2.9.71,5.8.36,2.89.47,2.88.93,5.74c.14,1,.35,1.9.55,2.85l.59,2.83.58,2.83c.19.95.47,1.86.7,2.79l.72,2.77c.12.46.22.93.36,1.39l.43,1.35.85,2.69c.28.91.65,1.74,1,2.61.17.43.32.87.5,1.28l.55,1.21c.19.39.37.83.56,1.14s.43.8.46.84a3.89,3.89,0,1,1-5.93,5l-.26-.34Z"/><path class="cls-21" d="M4217.34,2255.05c-5.22,40.62-2.72,59.17-2.47,60.91l0,.13s-15-21.67-13.74-72c1.05-43.22-5.76-58.57-7.72-62.06a2.71,2.71,0,0,1-.16-.27,1.4,1.4,0,0,0-.12-.18,1.72,1.72,0,0,0-.18-.28.15.15,0,0,0,0-.06C4194,2182.29,4222.74,2213.08,4217.34,2255.05Z"/><path class="cls-3" d="M4333.56,2480.13c-.12,6.6-13.48,74.46-129.71,118.74,0,0,114.24-68,129.26-118.19.06-.18.11-.37.16-.55Z"/><path class="cls-3" d="M4207.55,2607.49c-1.12-.54-73.48-35.2-87.58-50.35-14.71-15.79-28-40.4-39.46-57.88C4138.89,2565.07,4206.4,2606.79,4207.55,2607.49Z"/><path class="cls-3" d="M4352,2422.58s-21.17,16.26-25.34,24.12c-7.93,15-34.58,32.45-65,46.08-18.81,8.43-28.6,15.26-59.21,54a.18.18,0,0,0,.05-.08c1.59-2.56,34.51-55.23,66.21-67.06,32.48-12.14,52.21-37.44,53.61-38.84S4337.06,2425.67,4352,2422.58Z"/><path class="cls-3" d="M4205.74,2562.59c-18-25.94-56.47-45.78-67.16-52.49s-24.42-23.2-36-42.43-52.2-26.86-52.2-26.86,41.35,1.19,49.93,15.74,34.67,41.66,55,51S4202.15,2555.83,4205.74,2562.59Z"/><path class="cls-3" d="M4348.34,2333c-.91,20.76-20.44,66.84-61,86.07-40,18.93-79.92,58-81.16,59.18a.05.05,0,0,1,0,0c.15-.21.6-.8,1.32-1.72,7-9.05,40.05-49.86,71.58-62.54C4314.6,2399.62,4346.88,2351.44,4348.34,2333Z"/><path class="cls-3" d="M4321.06,2309.35c-1.21,2.74-20.93,47-37.79,68.54-17.25,22.11-72.08,54.43-72.94,54.93.63-.66,28.22-29.18,45.69-43.23C4273.66,2375.42,4308.7,2335.69,4321.06,2309.35Z"/><path class="cls-3" d="M4207.57,2492.21s-17.09,9.11-78.91-60.66c-41.43-46.77-63.55-60.88-73.48-65.12,40.1,15.35,55.07,29.34,67,45.75,50,68.93,84.08,79.5,85.38,80Z"/><path class="cls-21" d="M4214,2388.88l.7-.09-.81.8S4213.89,2389.35,4214,2388.88Z"/><path class="cls-3" d="M4268,2335.57c-13,13.13-47.51,47.42-53.33,53.19.68-1.28,22.51-42.45,45.58-57.62,23.41-15.4,40.86-52.33,46.37-83.44a0,0,0,0,0,0,0C4307.58,2283.68,4282.24,2321.22,4268,2335.57Z"/><path class="cls-3" d="M4251.41,2284.59c-30.05,39.67-35,46.34-35.1,46.54v0c.56-1.09,19.66-39.18,35.71-60.48,15.91-21.1,17.45-48.66,13.86-59.73l-.06-.18-.21-.61s0,.07,0,.11C4266.61,2212.33,4281,2245.61,4251.41,2284.59Z"/><path class="cls-3" d="M4217.34,2255.05c-5.22,40.62-2.72,59.17-2.47,60.91-8.06-44.21-3.6-59.79-1-78.89,2.37-17.42-17-49.5-20.42-55.07a2.71,2.71,0,0,1-.16-.27,1.4,1.4,0,0,1-.12-.18l-.18-.28a.15.15,0,0,0,0-.06C4194,2182.29,4222.74,2213.08,4217.34,2255.05Z"/><path class="cls-3" d="M4211.82,2439.2c-1.65-.28-54.9-9.57-93.66-62.45-39.38-53.72-20.15-58-52.2-91l0,0c1.07.86,32.31,26,67.26,95.2C4133.25,2381,4162.56,2424,4211.82,2439.2Z"/><path class="cls-3" d="M4214.61,2396c-2.17-.91-48.67-20.83-70.44-63.45-22.27-43.63-29.9-64.38-42.7-74.77h0c1.09.77,32.52,23.28,52.78,72.36,20.62,49.95,60.3,65.77,60.3,65.77Z"/><path class="cls-3" d="M4217,2346.37h0s0,0,0,0h0l0,0v0s0,0,0,0l-.07-.06-.08-.07-.09-.09c-3.45-3-30.49-27.48-48.47-67.44-19.21-42.68-25.63-57-33.25-60.12h0a19.51,19.51,0,0,1,4.71,1.48l.26.11c7.81,3.47,23,14.17,32.38,46.53,10.8,37.29,34.4,67.51,42.2,76.81C4216,2345.19,4216.87,2346.2,4217,2346.37Z"/><path class="cls-19" d="M4255.24,2717.27h-94.36a11.54,11.54,0,0,1-11.47-10.29l-9.13-83.74a11.54,11.54,0,0,1,11.47-12.78h112.62a11.54,11.54,0,0,1,11.47,12.78l-9.13,83.74A11.53,11.53,0,0,1,4255.24,2717.27Z"/><rect class="cls-20" x="4128.05" y="2610.46" width="161.42" height="28.69" rx="7.14"/><ellipse class="cls-3" cx="2412.67" cy="2745.92" rx="108.18" ry="5.9"/><path class="cls-23" d="M2420.12,2731.49s-2.95,15.31.28,16.27,55.72,1.6,58.78-1.89-2.89-6-2.89-6l-33.3-18Z"/><path class="cls-23" d="M2349.11,2727.94s-3.65,13.92-.73,15,51.2,4.86,54.22,1.83-2.29-5.74-2.29-5.74l-29.56-18.58Z"/><path class="cls-24" d="M2455.28,2454.68s9.25,123.88,7.71,153.7-10.33,116.95-10.33,116.95-10.23,16.38-34.91,10c0,0,13.88-111,10.29-133.07s-18.74-85.91-18.74-85.91-7.48,83.85-11.08,101.33-16.75,108.29-16.75,108.29-12.77,8.78-33.11,3.36c0,0,15.94-112.33,15.94-134.35s-3.54-97.21,6.25-141Z"/><path class="cls-25" d="M2339.12,2392l-19.53,52.86s-18.23,17-4.4,31.17c0,0,21.68-2.82,13.82-25.45l28.87-44Z"/><path class="cls-26" d="M2388.39,2299.12,2339.12,2392s2,10.77,18.76,14.57l44.1-76.64Z"/><path class="cls-25" d="M2465.9,2228.57s8.72,26-5.59,46.62c0,0-4.64,2.18-11.31-1.09l-7.5,17.45s-19.77.68-23.31-2.32l-1.5-34.9,28.49-25.76Z"/><path class="cls-27" d="M2467.12,2218.48s11.73,12.27-7.08,20.59c0,0-8.59,5-9.68,14.58s-10.63,19.77-33,16.36c0,0-14.58-33.12,0-50.71,0,0-3.54-14.31,26.17-14.31S2467.12,2218.48,2467.12,2218.48Z"/><path class="cls-28" d="M2370.55,2453.9s36,23.5,86.71,7.94c0,0,0-.07,0-.2-12.67,3.91-13.45-1.85-14.66-9.38-1.28-8,14.06-15,14.06-15l1.52-2.43c1.22-31.65,3.59-80.63,6.66-86.78l21.35,41.31-3.59,6.59s6.19,17.36,23.55,10.38c0,0,13.77-9.38,7.58-30.34s-27.14-64.86-31.93-68.85-30.73-15.55-30.73-15.55l-1.6-6.6s-20.15-10.78-37.72-3.6l-2.19,6.39s-18.17,3.39-23.15,14.57S2370.55,2453.9,2370.55,2453.9Z"/><path class="cls-29" d="M2442.61,2452.26c1.21,7.53,2,13.29,14.66,9.38,0-1.57.37-12.38.92-26.78l-1.52,2.43S2441.33,2444.28,2442.61,2452.26Z"/><path class="cls-25" d="M2442.61,2452.26c1.21,7.53,2,13.29,14.66,9.38.75-.23,1.52-.6,2.39-.8,8.15-1.86,8.87-17.76,8.87-17.76l37.63-36.72c-17.36,7-23.55-10.38-23.55-10.38l-24.42,38.88-1.52,2.43S2441.33,2444.28,2442.61,2452.26Z"/><path class="cls-30" d="M1852.24,2657.33c-6.67,8.27-16.07,9.46-20.1,9.57-5-10.57-10.62-22.87-15.32-34.16-2.29-5.51-4.37-10.77-6-15.48-1.45-4.08-2.6-7.75-3.34-10.8-5.87-24.18-7.7-111-7.7-111L1782.16,2586l1.11,30.65.63,17.36,1.34,37a30.14,30.14,0,0,1-24.43,1.31c-1.06-11.51-2.25-25-3.32-38.3-.36-4.44-.7-8.87-1-13.2-1.42-19.12-2.4-36.47-2.16-45.41.74-26.74,17.59-107.71,19.12-131.16.48-7.31-1-19.51-3.4-33.07l59.73,3c1.43,16.53,2.22,28.24,2.22,28.24,23.08,48,1.83,124.2.37,146.91-.29,4.45.93,11.27,3.07,19.35,1.21,4.61,2.73,9.63,4.44,14.86C1843.46,2634.44,1847.92,2646.36,1852.24,2657.33Z"/><path class="cls-31" d="M1734,2258.57s-5.2-35.88,40.81-35.88c0,0,29.37,1,29.37,32s5.46,47.31,19.76,57.19,19.75,39.51-21.06,34.57-37.78-1.38-45.65,3.38c-17.89,10.82-12.92-.9-16.58-15.71-1.17-4.74-8.57-12.11-6.83-19.38s8.49-18.46,6.67-25.74S1732.93,2270.83,1734,2258.57Z"/><path class="cls-32" d="M1839.45,2473.67l53.76-23.91s9.92,9.2,7.24,26.87l-53.65,25.65Z"/><ellipse class="cls-33" cx="1843.13" cy="2487.97" rx="3.48" ry="14.77" transform="translate(-560.91 536.63) rotate(-14.4)"/><path class="cls-25" d="M1786.92,2717.1s-3.67,10.63-28.21,22.35-38.83,1.83-38.83,1.83c24.17-11.36,44-37.37,44-37.37s-1.35-13.36-3-31.68a30.14,30.14,0,0,0,24.43-1.31Z"/><path class="cls-25" d="M1748.62,2238.88c17.74-13.67,33.17-2.07,40.13,1.95s5.59,57.11,8.79,64.12c4.58,10,19,13,19,13,6,20.47,10.65,66.18,13.23,96.1l-59.73-3c-5.16-29.9-14.25-66.41-14.25-71.7,0-7.7,15.68-23,15.68-23l1.28-24.5c-5.19,3.53-13.88,1.78-13.88,1.78C1737.58,2274.61,1748.62,2238.88,1748.62,2238.88Z"/><path class="cls-25" d="M1868.62,2696.59c-9.9,46.53-40.67,46.16-40.67,46.16,13.92-14.66,17.22-49.09,17.22-49.09s-5.87-11.61-13-26.76c4-.11,13.43-1.3,20.1-9.57C1860.68,2678.79,1868.62,2696.59,1868.62,2696.59Z"/><path class="cls-31" d="M1745.73,2235.87s9.45,26,32.17,18.64l19.35,28.5s7.18-15.36,3-29.15S1781.45,2213.41,1745.73,2235.87Z"/><ellipse class="cls-25" cx="1782.27" cy="2258.58" rx="8.7" ry="5.62" transform="translate(-1064.85 2672.79) rotate(-60)"/><path class="cls-25" d="M1806.55,2351.77s-11.94-28.09,17.65-29.66c0,0,39.78,62.93,41.36,66.95s10.15,38.18,10.51,68.64c0,0,6,13.66,4.72,18.91s-8.83,18.79-17.16,19.79c-4.73.57,1.23-20.49,1.23-20.49s-11,9.46-10,6,8.93-20.31,8.93-20.31-5.08-56.56-12.43-65.67S1806.55,2351.77,1806.55,2351.77Z"/><path class="cls-25" d="M1753.32,2338.81s-8.76,10.68-1.58,49.73,7.71,43.95,6.65,49.38-14.53,48-14.53,48-22.41,25-3.68,33.62,18.63-29.95,18.63-29.95,17.62-47.28,17.27-53.05-5.25-80-10.68-85.81S1753.32,2338.81,1753.32,2338.81Z"/><path class="cls-34" d="M1771.46,2316.37s-4.49,19.65,5,17.59,21.14-28.8,21.14-28.8,4.86,9.17,21.5,12.53a30.53,30.53,0,0,1,11.33,14.35,41.6,41.6,0,0,0-20.49,25.3l20,17.39s10.85,41.9,8.42,52.74-31.73,34.23-64.77,16.28c0,0-4.62-3.18-4.8-13.66s-16.46-47.69-17.58-70.32l-5.53-5.23s1-17.4,10.39-25.44S1771.46,2316.37,1771.46,2316.37Z"/><path class="cls-30" d="M1839,2722.47s14.2,11.12,28.18-29.23l8.84,19.83-3.2,2.06-6.7-6.57s-14.11,41.6-36.37,35.83c0,0-5.26-1.85-1.34-6.8S1839,2722.47,1839,2722.47Z"/><path class="cls-30" d="M1738.29,2729.6s19.2,14,48.51-15.72c0,0,.46,18.46-1.71,29.69,0,0-3.6,1.75-5.15.72l-1.85-14.53s-33.91,25.14-54.52,17.93c0,0-12.77-4.33,1-10.82S1738.29,2729.6,1738.29,2729.6Z"/><ellipse class="cls-3" cx="1804.97" cy="2746.31" rx="112.44" ry="6.14"/><path class="cls-35" d="M2667.49,2704.48l1.32,20.33s9.59,5.61,17.11,1.36l1.16-20.13Z"/><path class="cls-35" d="M2738.37,2702.31l6.59,25.26s11.22,3.73,18-2.61l-3.8-28.25S2745.44,2702.9,2738.37,2702.31Z"/><path class="cls-36" d="M2664.38,2439.62s56,15.23,87.09,0c0,0,8,104.45-14.34,157,0,0,18.34,2.18,22.07,100.1,0,0-12.75,8.08-20.83,5.6L2708.22,2586l-6.53-89.84-18.51,110.36s12,13.68,4.83,55.33c0,0-2.8,38.86-.93,44.15,0,0-10.88,5.9-19.59-1.56l-9.94-99.79S2643.87,2515.78,2664.38,2439.62Z"/><path class="cls-36" d="M2741.44,2714.09s13.52,4.54,19.77-2.42c0,0,10.25,13.32,4.73,18.93s-22.27,17.56-59.3,15.57c0,0-3.53-2,0-4.52S2733.41,2726.87,2741.44,2714.09Z"/><path class="cls-36" d="M2668.36,2717.92s4,6.76,17.75,5c0,0,4.24,16.58-1.1,20.93s-58.11,1.9-58.11,1.9-6-1.81-2.18-4.25S2668.36,2717.92,2668.36,2717.92Z"/><path class="cls-25" d="M2676.48,2266.26s6.41,4.62,7.26,15.93c0,0,0,8.31-.27,10.12,0,0,13.68,7.87,26.55,0,0,0-1.85-25.93-6.58-35.36Z"/><path class="cls-25" d="M2660.07,2223.45s-.8,47.55,18.59,48.43,28.76-22.22,28.76-22.22l-12.27-34.58Z"/><path class="cls-37" d="M2645.21,2215.92s4.85,16.32,23.82,9.93,24.93-3.31,28.24,9.92l6.17,21.18s19.76-26.48-6-50.29c0,0-8.83-7.28-26.91,2.2S2645.21,2215.92,2645.21,2215.92Z"/><path class="cls-25" d="M2694.74,2238.06s1.46-13.64,6.68-11.17,2.75,12.29-3.34,17.4Z"/><path class="cls-38" d="M2760,2340.71c-5.36,27.84-16.2,51-11.76,70.71L2754,2439s-64.18,16.87-91.76-2.35c0,0,8.11-39.21,5-52.8s-6.66-27.72-6.66-27.72,3.52,34.12-31.38,80.13c-.37.5-.74,1-1.12,1.46-34.09,44-48.68,16.71-48.68,16.71l14.65-9.93s-7.85-4.84-5.1-6.81,19.73-5.22,19.73-5.22,2.62-3.19,6.33-8.15c9-12.06,24.56-34.59,24.65-47,.13-17.52-.78-71.63,14.9-83.39a89.86,89.86,0,0,0,28.52-16.28s4.41,25.77,25.2-1.26l36.73,17.28C2751.12,2296.53,2765.37,2312.87,2760,2340.71Z"/><path class="cls-39" d="M2710.69,2277.53s-17.23,38.38-9.77,81.72,18.54,73.17,11.29,108.45c0,0,40.11,3.63,52-6.65,0,0-18.55-54.43-15.93-61.89,0,0,15.72-56.54,13.41-78.21S2751.92,2293.38,2710.69,2277.53Z"/><path class="cls-25" d="M2628.05,2437.72c-34.09,44-48.68,16.71-48.68,16.71l14.65-9.93s-7.85-4.84-5.1-6.81,19.73-5.22,19.73-5.22,2.62-3.19,6.33-8.15C2620.31,2427.48,2625.53,2431.87,2628.05,2437.72Z"/><path class="cls-39" d="M2677.52,2465l-23.28-4.07s21-50.29,7.17-101.33c0,0,.4,41.08-32.64,79.65,0,0-6.4-11.79-15.71-14,0,0,24.59-35.22,25.17-44.83s-2.33-69.41,16.15-87.6c0,0,2.26-.83,6-2.54a163.88,163.88,0,0,0,22.66-12.67s-16.29,21.32-4.8,75.75S2677.52,2465,2677.52,2465Z"/><path class="cls-40" d="M2742.34,2388.88c-7.85,11.87-20.33,21.16-53.73,51.47l-3.52,3.2c-36.06,32.88-51.31,16.25-52.7,11.1s26.35-11.1,26.35-11.1-7.13-9.11-5.66-11.49,14.6,5.71,14.6,5.71l8.61-9.66,40.1-45s7.53-20.6,15.24-50.71,21.21-33.48,21.21-33.48C2777,2324.69,2750.46,2376.59,2742.34,2388.88Z"/><path class="cls-25" d="M2688.61,2440.35l-3.52,3.2c-36.06,32.88-51.31,16.25-52.7,11.1s26.35-11.1,26.35-11.1-7.13-9.11-5.66-11.49,14.6,5.71,14.6,5.71l8.61-9.66A79.37,79.37,0,0,1,2688.61,2440.35Z"/><path class="cls-40" d="M2628.77,2439.25s-6.4-11.79-15.71-14c0,0,24.59-35.22,25.17-44.83s-2.33-69.41,16.15-87.6c0,0,2.26-.83,6-2.54-7,45.28,1,69.29,1,69.29S2661.81,2400.68,2628.77,2439.25Z"/><ellipse class="cls-3" cx="2693.25" cy="2746.39" rx="110.37" ry="6.02"/><path class="cls-41" d="M1436.4,2726.14s18.83,5.36,29.89-3.44c0,0,17.07,17.89,35.36,19.24,0,0,3.16,3.39,0,4.07s-39.06,2-45.83-2.94c0,0-10.79,4.44-19.42-.9C1431.67,2739.24,1436.4,2726.14,1436.4,2726.14Z"/><path class="cls-41" d="M1382.24,2725.14s-18.35,5.22-29.12-3.36c0,0-16.63,17.43-34.45,18.75,0,0-3.07,3.3,0,4s38,2,44.65-2.86c0,0,10.51,4.33,18.92-.88C1386.85,2737.9,1382.24,2725.14,1382.24,2725.14Z"/><path class="cls-42" d="M1361.36,2475.41l-10.18,247.67s20.4,9.55,31.15,2.2l6.68-103.94,21.24-94.46,35.8,92.76-10.18,106.78s25.33,5.34,32.8-3.72l12.11-110a25.1,25.1,0,0,0-.54-8.55l-28.4-119.84S1387,2495.21,1361.36,2475.41Z"/><path class="cls-25" d="M1414.8,2301.2a17.65,17.65,0,0,0,10.92-4.11l-1.16,29.75h-28.28l-3.73-34.93A29.05,29.05,0,0,0,1414.8,2301.2Z"/><path class="cls-43" d="M1426.64,2273.67l-.81,20.58a14.69,14.69,0,0,1-11.75,5.33c-11.78,0-18.59-7.83-22.53-17.06l-1.08-10.16Z"/><path class="cls-25" d="M1425.83,2294.25a14.69,14.69,0,0,1-11.75,5.33c-11.78,0-18.59-7.83-22.53-17.06-5.66-13.31-5.36-29.54-5.36-29.54l4.88-4.63,9.07-8.61,30.19-3.71a168.09,168.09,0,0,1,2.71,27.65C1433.12,2275.2,1431.59,2287.45,1425.83,2294.25Z"/><path class="cls-44" d="M1425.83,2294.25l-.11,2.84a17.65,17.65,0,0,1-10.92,4.11,29.05,29.05,0,0,1-22.25-9.29l-1-9.39c3.94,9.23,10.75,17.06,22.53,17.06A14.69,14.69,0,0,0,1425.83,2294.25Z"/><path class="cls-25" d="M1425.83,2294.25a14.69,14.69,0,0,1-11.75,5.33c-11.78,0-18.59-7.83-22.53-17.06-5.66-13.31-5.36-29.54-5.36-29.54l4.88-4.63,42,15.33C1433.12,2275.2,1431.59,2287.45,1425.83,2294.25Z"/><path class="cls-45" d="M1391.66,2248.52s35.57,9.87,49.83-14.75c0,0-23.24-9.74-36.09-9.74s-20.22,13.85-20.22,13.85-17.65,10.69,6.7,47.78Z"/><ellipse class="cls-25" cx="1389.01" cy="2264.03" rx="4.92" ry="8" transform="translate(-1050.62 1213.63) rotate(-35.18)"/><path class="cls-46" d="M1394,2305.07l-6.77,7.83-25.83,7.14v164.22s49.71,15.59,90.48,0v-163.4l-21.45-6.34-4.67-7.47-16.1,15.43Z"/><path class="cls-46" d="M1510.66,2405,1493,2418.87s-4.58,3.27-7.85,0-33.33-46.25-33.33-46.25v-51.77s4.67,2.9,17,23.23,25.33,40.78,25.33,40.78l6.26-3.57A57.06,57.06,0,0,0,1510.66,2405Z"/><path class="cls-46" d="M1361.36,2320.05v48.07s-34.32,25.84-34.93,44.35a22.35,22.35,0,0,0,2.64,10.22c-9.28,4.4-15.24,9-19.06,13.13l-.27-.35c-16.48-21.57-8.75-39.68-8.75-39.68C1316.25,2359.16,1361.36,2320.05,1361.36,2320.05Z"/><path class="cls-25" d="M1574.22,2342.41s2.55,15.52-5.59,23.67a37.51,37.51,0,0,1-12.25,3.09L1510.66,2405a57.06,57.06,0,0,1-10.2-23.74l42.25-24.13s6.18-25.8,23.9-19.38c0,0,23.6-16,25.8-13.8S1574.22,2342.41,1574.22,2342.41Z"/><path class="cls-25" d="M1373.43,2491.19c-10.39,2.07-19.13-13.4-19.13-13.4s-27.77-20.53-44.29-42c3.82-4.09,9.78-8.73,19.06-13.13,8.52,17.54,34.59,38,34.59,38l13.23,6.31C1390.11,2473.31,1383.81,2489.12,1373.43,2491.19Z"/><polygon class="cls-47" points="1408.38 2321.1 1397.18 2331.91 1387.19 2312.9 1393.96 2305.07 1408.38 2321.1"/><polygon class="cls-47" points="1410.85 2321.3 1420.59 2333.08 1430.39 2314.52 1425.72 2307.05 1410.85 2321.3"/><ellipse class="cls-3" cx="1414.72" cy="2745.09" rx="110.37" ry="6.02"/><path class="cls-48" d="M2559.4,328.92s-61.73,45.61-55.17,66.87,40.37,85.57,40.37,85.57l17.52-4.56s-29-56.06-6.71-75.36a270.76,270.76,0,0,1,42.31-30.21s44.82,24.13,45.36,36-21.77,60.6-21.77,60.6l15.09,9.41s46.74-70,38.27-87.23-43-51.1-43-51.1S2588.85,345.93,2559.4,328.92Z"/><path class="cls-49" d="M2603.76,207s-74.13,2.21-65,79l26,2.53-3,43.64s33.41,16.36,70,6.79l5.8-74.46,8,26.45L2670.05,279s-14.77-47.62-23.73-55.21S2603.76,207,2603.76,207Z"/><polygon class="cls-50" points="2589.8 191.8 2586.58 225 2615.4 227.8 2618.53 195.58 2589.8 191.8"/><path class="cls-51" d="M2585.67,188.6s-6.12-7.54-2.64-23.7c0,0,5.1-30.34,35-13.57,0,0,6.76,5.44,14.87,5.63s.7,26-11.69,29.34Z"/><path class="cls-52" d="M2625.62,175.73C2623,203.2,2613,213,2602.07,211.91s-18.83-12.44-16.15-40c1.4-14.4,10.76-18.44,21.72-17.38S2627,161.34,2625.62,175.73Z"/><path class="cls-51" d="M2585.83,162.15s4.36,10.34,43.07,9.43l1.41-8.5-12.79-8.94L2602.08,151l-11.23,3.93Z"/><path class="cls-53" d="M2588.08,209.52s4.33,13.77,12.83,16.88l-11.29,12.88a58.9,58.9,0,0,1-3.16-29.44Z"/><path class="cls-53" d="M2617,211s-7.1,14-16,15.39l8.36,14.79s9.14-13.09,9.05-29.72Z"/><path class="cls-52" d="M2538.72,286s3.93,61.82,30.54,84.42c0,0,17.92,6.08,12.53-13.43l-8.39-9.11s-15.66-18-8.68-59.35Z"/><path class="cls-52" d="M2645.51,290.92s32.86,62.67,47.25,67,30.11,3.79,29.16-.61-27-12.3-27-12.3l-24.88-66Z"/><path class="cls-54" d="M2562.12,476.8s4.79,8.3,3.89,10.15-34.69,30.08-36,26,14.57-31.56,14.57-31.56Z"/><path class="cls-54" d="M2621.31,467.85s-10.83,8.91-5.68,15.58,28.87,27.32,32.3,26.81-11.53-33-11.53-33Z"/><polygon class="cls-2" points="3708.15 834.69 3575.33 834.69 3585.48 805.86 3594.06 781.51 3602.77 756.76 3680.7 756.76 3699.94 811.39 3708.15 834.69"/><g class="cls-55"><path d="M3699.94,811.39c-53.29,14.77-94.3,3.06-114.46-5.53l8.58-24.35,31.82-24.75h54.82Z"/></g><path class="cls-2" d="M3802.37,614.12c0,108.21-71.92,195.92-160.63,195.92S3481.1,722.33,3481.1,614.12Z"/><path class="cls-2" d="M3711.67,784.84q-3.68,0-7.06-.32a50.62,50.62,0,0,1-18.93-5.29,40,40,0,0,1-13.33-11.33,54,54,0,0,1-8.47-17.37c-3.23-10.85-6.19-27,5.37-42.2,9.23-12.11,26.63-22.34,54.77-32.18,14.66-5.13,30.53-13,45.88-20.58,15.58-7.71,30.29-15,43.83-19.63,16.62-5.69,28.82-6.38,38.41-2.18,8.47,3.72,14.39,11.15,17.59,22.09,2.4,8.18,2.42,18,.05,28.39a96,96,0,0,1-14.35,32.09A125.89,125.89,0,0,1,3825.49,747a164.82,164.82,0,0,1-46.95,23.53c-22.7,7.34-38.77,11.43-52.13,13.25A110.41,110.41,0,0,1,3711.67,784.84Zm126.5-139.15c-15.31,0-38.87,11.66-61.78,23-15.74,7.79-32,15.85-47.53,21.27-56.73,19.85-56.64,37.28-51,56.4,2.9,9.77,7.67,16.28,14.58,19.91,7.44,3.92,17.89,4.89,32,3,12.46-1.69,27.76-5.6,49.59-12.67,38.56-12.47,59-33.24,69.29-48.46A81.54,81.54,0,0,0,3855.51,681c1.79-7.86,1.85-15.33.18-21h0c-2-6.68-5-10.87-9.43-12.79A20.07,20.07,0,0,0,3838.17,645.69Z"/><path class="cls-2" d="M3660.09,585c.18-1.68.43-3.36.69-5,.12-.84.28-1.67.43-2.51s.3-1.67.46-2.5c.62-3.34,1.43-6.64,2.24-9.94a151,151,0,0,1,6.45-19.4,94.82,94.82,0,0,1,9.8-18.15,55.6,55.6,0,0,1,6.86-7.94,43.81,43.81,0,0,1,8.48-6.36l1.17-.65,1.2-.59.61-.3.62-.26,1.24-.52a32.92,32.92,0,0,1,5.22-1.51,27,27,0,0,1,5.48-.44,21.7,21.7,0,0,1,5.51.93,18.75,18.75,0,0,1,9.12,6.3,21.56,21.56,0,0,1,2.84,4.7l.28.62c.1.2.17.42.25.63l.47,1.26a21.66,21.66,0,0,1,.7,2.66,16.07,16.07,0,0,1,.15,5.58,14.39,14.39,0,0,1-1.89,5.25,17.89,17.89,0,0,1-3.53,4.15,23.36,23.36,0,0,1-4.41,3,29,29,0,0,1-4.86,1.95,27.62,27.62,0,0,1-5.08,1.05,21.81,21.81,0,0,1-5.17,0,11.38,11.38,0,0,1-2.5-.66,4.22,4.22,0,0,1-2-1.55,3.22,3.22,0,0,0,1,.78,5.14,5.14,0,0,0,1.14.46,10.2,10.2,0,0,0,2.46.34,20.48,20.48,0,0,0,4.93-.49,28.7,28.7,0,0,0,9.11-3.63,17.54,17.54,0,0,0,6.57-6.68,12.06,12.06,0,0,0,1.29-4.31,13.46,13.46,0,0,0-.36-4.5,17.64,17.64,0,0,0-.69-2.21l-.46-1.09c-.08-.18-.14-.37-.23-.55l-.27-.52a18.7,18.7,0,0,0-2.53-3.87,15.31,15.31,0,0,0-7.43-4.86,18.66,18.66,0,0,0-4.48-.67,22.31,22.31,0,0,0-4.59.44,29.07,29.07,0,0,0-4.51,1.33l-1.09.47-.54.23-.54.27-1.07.52-1,.59a40.58,40.58,0,0,0-7.73,5.74,54.1,54.1,0,0,0-6.49,7.27,103,103,0,0,0-10,17.16,184.25,184.25,0,0,0-7.48,18.66c-.53,1.6-1.08,3.19-1.59,4.8s-1,3.21-1.48,4.83-.94,3.24-1.39,4.87S3660.5,583.39,3660.09,585Z"/><path class="cls-2" d="M3649.47,581.58a297.09,297.09,0,0,1,2.41-33.84q1-8.43,2.58-16.8c.48-2.79,1.06-5.56,1.62-8.34s1.2-5.55,1.88-8.3l.5-2.07c.17-.69.36-1.37.54-2.06.37-1.37.72-2.74,1.1-4.11l1.19-4.09.3-1,.32-1,.65-2c.82-2.72,1.81-5.38,2.73-8.07s2-5.34,3.1-7.95l.82-2,.41-1,.45-1,1.77-3.89c.61-1.29,1.28-2.56,1.91-3.83l1-1.91,1-1.88a122.28,122.28,0,0,1,9.18-14.48l2.58-3.44,2.56-3.33.64-.83.62-.85,1.23-1.7,1.22-1.7,1.18-1.74,1.18-1.74c.39-.58.78-1.15,1.15-1.75l2.24-3.54,2.13-3.61c.36-.6.69-1.21,1-1.82l1-1.84a123.35,123.35,0,0,0,6.86-15.21,91.58,91.58,0,0,0,4.37-16,69.44,69.44,0,0,0,1-16.39,51.68,51.68,0,0,0-1.26-8.05,43,43,0,0,0-2.56-7.68,36.69,36.69,0,0,0-1.83-3.59l-.5-.87-.25-.44-.28-.42-1.13-1.66a38.13,38.13,0,0,0-5.36-6,39.84,39.84,0,0,0-3.1-2.57,9.49,9.49,0,0,0-.83-.58l-.84-.57c-.56-.36-1.1-.77-1.7-1.09-1.17-.66-2.33-1.36-3.56-1.93-.61-.31-1.24-.57-1.85-.86s-1.27-.53-1.89-.8a76.26,76.26,0,0,0-7.81-2.64,73.9,73.9,0,0,0-8.06-1.81,70.57,70.57,0,0,0-16.41-.92c-1.36.13-2.73.2-4.08.42-.67.1-1.35.17-2,.29l-2,.39c-.34.07-.68.12-1,.21l-1,.25c-.66.17-1.32.33-2,.51l-1.95.62-1,.31-.95.37a49.47,49.47,0,0,0-14.06,8.11,56.69,56.69,0,0,0-10.93,12.13l-1.15,1.71-1.05,1.78-1.05,1.78c-.33.6-.63,1.22-.95,1.84a68.93,68.93,0,0,0-3.42,7.53,61.25,61.25,0,0,0-3.92,15.95,52.13,52.13,0,0,0-.21,8.19,47.86,47.86,0,0,0,1.2,8.09,42.85,42.85,0,0,0,2.66,7.71,39.31,39.31,0,0,0,4.15,7,35.48,35.48,0,0,0,12.27,10.5A29.68,29.68,0,0,0,3640,433a28.51,28.51,0,0,0,7.93-1.74,32,32,0,0,0,3.73-1.68c1.19-.66,2.38-1.37,3.52-2.16a44.46,44.46,0,0,0,18.34-26.87,36.69,36.69,0,0,0,.91-8.29,24.76,24.76,0,0,0-1.39-8.19,14.79,14.79,0,0,0-1.95-3.66,11.32,11.32,0,0,0-1.38-1.55,9.72,9.72,0,0,0-1.68-1.24,9.23,9.23,0,0,0-1.9-.84,9.55,9.55,0,0,0-2-.41,13.23,13.23,0,0,0-4.2.33,13.57,13.57,0,0,1,4.21-.49,9.48,9.48,0,0,1,2.11.34,9.21,9.21,0,0,1,2,.8,9.77,9.77,0,0,1,1.77,1.22,11.56,11.56,0,0,1,1.5,1.55,15.71,15.71,0,0,1,2.16,3.72,25.2,25.2,0,0,1,1.7,8.4,37.78,37.78,0,0,1-.68,8.55,45.84,45.84,0,0,1-18.3,28.3,40.71,40.71,0,0,1-3.66,2.35,34.93,34.93,0,0,1-4,1.89,31.34,31.34,0,0,1-8.53,2,32.33,32.33,0,0,1-17.14-3.22A37.86,37.86,0,0,1,3609.57,421a42.19,42.19,0,0,1-4.58-7.49,45.66,45.66,0,0,1-3-8.25,50.66,50.66,0,0,1-1.41-8.65,55.44,55.44,0,0,1,.1-8.74,64.48,64.48,0,0,1,4-16.92,72.81,72.81,0,0,1,3.52-7.92c.33-.65.64-1.3,1-1.94l1.09-1.88,1.09-1.88c.39-.61.8-1.21,1.2-1.82a60.65,60.65,0,0,1,11.57-13.06,52.16,52.16,0,0,1,15.14-8.82l1-.4,1-.34,2.1-.67c.7-.2,1.41-.37,2.12-.56l1.06-.27c.36-.1.72-.15,1.08-.23l2.15-.42c.72-.13,1.44-.22,2.17-.32,1.44-.24,2.9-.32,4.35-.47a75.35,75.35,0,0,1,17.37.92,79.73,79.73,0,0,1,8.48,1.88,78.39,78.39,0,0,1,8.25,2.78c.67.29,1.34.55,2,.85s1.33.6,2,.93c1.33.63,2.6,1.39,3.88,2.13a21.77,21.77,0,0,1,1.86,1.2l.92.62a9.73,9.73,0,0,1,.9.64,44.38,44.38,0,0,1,3.42,2.84,42.35,42.35,0,0,1,5.91,6.64l1.24,1.85.31.46.28.48.55,1a41.94,41.94,0,0,1,2,4,47.16,47.16,0,0,1,2.78,8.39,57,57,0,0,1,1.33,8.69,70.5,70.5,0,0,1-1.09,17.36,94.77,94.77,0,0,1-4.68,16.63,127.75,127.75,0,0,1-7.21,15.62l-1,1.87c-.35.63-.69,1.26-1.07,1.87l-2.21,3.68-2.32,3.6c-.38.6-.79,1.19-1.2,1.77l-1.22,1.76c-.41.59-.81,1.18-1.23,1.76l-1.27,1.71-1.28,1.72-.64.86-.66.84-2.66,3.35-2.56,3.3a119.91,119.91,0,0,0-9.15,14l-1.05,1.82-1,1.86c-.64,1.25-1.31,2.48-1.92,3.74l-1.81,3.79-.46.95-.42,1-.85,1.93c-1.16,2.55-2.15,5.18-3.22,7.78s-2,5.25-2.85,7.93l-.68,2-.34,1-.31,1-1.26,4c-.41,1.34-.78,2.7-1.17,4.05-.2.68-.4,1.35-.58,2l-.55,2c-.74,2.72-1.4,5.45-2.07,8.19s-1.27,5.49-1.82,8.26c-1.15,5.52-2.14,11.07-3,16.65s-1.6,11.17-2.2,16.79S3649.71,575.93,3649.47,581.58Z"/><path class="cls-2" d="M3625.78,581.58c.94-4,2.09-7.89,3.12-11.84s2.11-7.87,3.11-11.82,2-7.88,3-11.84,1.9-7.9,2.77-11.87c1.72-7.94,3.31-15.9,4.45-23.89.56-4,1-8,1.27-12a65.67,65.67,0,0,0-.18-11.83,25.78,25.78,0,0,0-1.2-5.52,10,10,0,0,0-2.62-4.27,3.83,3.83,0,0,0-.44-.36l-.24-.17-.3-.19-1.21-.75a26.91,26.91,0,0,0-2.52-1.26,18.93,18.93,0,0,0-5.3-1.46,14.94,14.94,0,0,0-5.37.37,17.17,17.17,0,0,0-5,2.23,20.9,20.9,0,0,0-4.23,3.7,25.64,25.64,0,0,0-3.3,4.68,22.91,22.91,0,0,0-2.14,5.3,17.74,17.74,0,0,0-.51,2.77,11.5,11.5,0,0,0,.06,2.69,12.56,12.56,0,0,0,6.36,8.69c.41.24.84.41,1.27.61.22.09.44.16.67.24l.33.11.34.09a10.11,10.11,0,0,0,2.79.34l.71,0,.71-.1.35,0,.35-.09.69-.17a12.5,12.5,0,0,0,2.63-1.21,16.36,16.36,0,0,0,4.35-4,31.42,31.42,0,0,0,3.2-5.17,30,30,0,0,1-2.68,5.53,17.27,17.27,0,0,1-4.23,4.6,12.62,12.62,0,0,1-2.81,1.56l-.77.26-.39.12-.4.09-.8.17-.82.09a11.58,11.58,0,0,1-3.27-.16l-.41-.08-.4-.1-.79-.22a15.78,15.78,0,0,1-1.53-.62,13.85,13.85,0,0,1-2.8-1.72,15.26,15.26,0,0,1-4.19-5.09,14.49,14.49,0,0,1-1.13-3.18,14,14,0,0,1-.26-3.4,19.67,19.67,0,0,1,.47-3.27,26.26,26.26,0,0,1,2.18-6.1,29.24,29.24,0,0,1,3.52-5.44,24.46,24.46,0,0,1,4.83-4.47,20.32,20.32,0,0,1,6.05-2.88,18.77,18.77,0,0,1,6.75-.6,22.24,22.24,0,0,1,6.48,1.66c1,.41,2,.94,3,1.44l1.39.85.35.21.39.27a8.86,8.86,0,0,1,.75.59,11.57,11.57,0,0,1,2.34,2.83,17.14,17.14,0,0,1,1.47,3.14,30.2,30.2,0,0,1,1.43,6.4,69,69,0,0,1,.14,12.6c-.3,4.14-.81,8.24-1.47,12.31s-1.43,8.1-2.31,12.1-1.85,8-2.89,12-2.12,7.91-3.29,11.82-2.38,7.83-3.65,11.71-2.58,7.75-4,11.59l-2.09,5.76-1.08,2.87-.53,1.43C3626.12,580.62,3625.91,581.09,3625.78,581.58Z"/><rect class="cls-46" x="3039.59" y="1059.48" width="21.13" height="56.5" transform="translate(1254.93 -1607.41) rotate(36.71)"/><path class="cls-42" d="M3224.2,854.27a135.07,135.07,0,1,0,27.56,189A135.06,135.06,0,0,0,3224.2,854.27ZM3070.68,1060.2a121.78,121.78,0,1,1,170.42-24.85A121.79,121.79,0,0,1,3070.68,1060.2Z"/><circle class="cls-56" cx="3143.47" cy="962.56" r="121.78"/><path class="cls-42" d="M3046.56,1118l-131,175.74a10.91,10.91,0,0,1-15.21,2.22l-6.94-5.17a10.91,10.91,0,0,1-2.21-15.22l131-175.73a10.84,10.84,0,0,1,8.92-4.36l17.07,12.72A10.88,10.88,0,0,1,3046.56,1118Z"/><rect class="cls-42" x="2861.61" y="1181.32" width="214.88" height="30.39" transform="translate(235.17 2861.69) rotate(-53.29)"/><path class="cls-57" d="M806.92,2004.8c11.69,13.76-.19,33.74-.19,33.74l-96.35,81.89c-40.15,34.12-251-227.88-251-227.88l103.24-87.75q9,14.21,18.23,27C681.73,1972.38,795.89,1991.82,806.92,2004.8Z"/><path class="cls-58" d="M542.65,1918C591.07,2050.6,683,2088.53,729.91,2103.83l-19.53,16.6c-40.15,34.12-251-227.88-251-227.88l103.24-87.75q9,14.21,18.23,27C534.51,1884.84,534.56,1895.84,542.65,1918Z"/><path class="cls-57" d="M1019.2,1190.15l41,48.25a22.21,22.21,0,0,1-2.53,31.23l-64.59,77.2a22.22,22.22,0,0,1-31.23-2.54l-66.36-78.08A22.23,22.23,0,0,1,898,1235L988,1187.61A22.22,22.22,0,0,1,1019.2,1190.15Z"/><path class="cls-58" d="M1056.47,1234l3.74,4.4a22.21,22.21,0,0,1-2.53,31.23l-64.59,77.2a22.22,22.22,0,0,1-31.23-2.54l-1.29-1.52C993.77,1317,1030.41,1281,1056.47,1234Z"/><path class="cls-59" d="M453.26,1730.53q3.38,4,6.28,8.16a106.9,106.9,0,0,1,18.23,46.1,107.61,107.61,0,1,1-74.11-87.19A106.81,106.81,0,0,1,446.22,1723Q449.88,1726.57,453.26,1730.53Z"/><rect class="cls-12" x="310.77" y="1616.51" width="253.41" height="254.86" rx="24.32" transform="translate(-1025.24 698.39) rotate(-40.36)"/><path class="cls-57" d="M433,1580.54s242.57-361.26,256.87-537.46l240,282.42L515.49,1677.64Z"/><path class="cls-57" d="M929.84,1325.49l240,282.42C993.66,1593.61,598,1774.75,598,1774.75l-82.52-97.11Z"/><path class="cls-12" d="M777.08,1047.4l402.58,473.7a60,60,0,0,1-6.84,84.29l-3,2.52-480-564.83,3-2.52A60,60,0,0,1,777.08,1047.4Z"/><rect class="cls-59" x="334.98" y="1705.48" width="126.36" height="20.57" rx="10.29" transform="translate(-1016.36 666.23) rotate(-40.36)"/><rect class="cls-59" x="365.37" y="1741.24" width="126.36" height="20.57" rx="10.29" transform="translate(-1032.28 694.42) rotate(-40.36)"/><rect class="cls-59" x="395.76" y="1777" width="126.36" height="20.57" rx="10.29" transform="translate(-1048.2 722.61) rotate(-40.36)"/><path class="cls-58" d="M1110,1439.11l69.68,82a60,60,0,0,1-6.84,84.29l-3,2.52C993.66,1593.61,598,1774.75,598,1774.75l-156,132.6a24.38,24.38,0,0,1-34.28-2.78l-2-2.38a107,107,0,0,1-26.58,5.34q8.36-7.86,17.37-16.18c23.67-21.85,50.64-45.91,80.57-71.35,28.81-24.48,60.37-50.24,94.38-76.54q9.55-7.37,19.35-14.8c125.6-95.18,282.21-195.36,456-265.62Q1078,1450.4,1110,1439.11Z"/><path class="cls-60" d="M3779.28,1386.87v372.72a11.81,11.81,0,0,1-11.76,11.76H3128.67a11.8,11.8,0,0,1-11.75-11.76V1386.87a11.8,11.8,0,0,1,11.75-11.76h638.85A11.8,11.8,0,0,1,3779.28,1386.87Z"/><path class="cls-61" d="M3775.47,1768.23a11.72,11.72,0,0,1-7.95,3.12H3128.67a11.74,11.74,0,0,1-8.58-3.75l327.69-223.46Z"/><path class="cls-62" d="M3775.47,1768.23a11.72,11.72,0,0,1-7.95,3.12H3128.67a11.74,11.74,0,0,1-8.58-3.75l328-217.88Z"/><path class="cls-63" d="M3775.47,1378.23a11.72,11.72,0,0,0-7.95-3.12H3128.67a11.74,11.74,0,0,0-8.58,3.75l303.54,237a40.56,40.56,0,0,0,48.89-.05Z"/><path class="cls-64" d="M3775.47,1378.23a11.72,11.72,0,0,0-7.95-3.12H3128.67a11.74,11.74,0,0,0-8.58,3.75l303.54,228.82a40.55,40.55,0,0,0,48.89-.06Z"/><rect class="cls-2" x="3747.11" y="1038.61" width="19.44" height="132.58" rx="9.72"/><rect class="cls-2" x="3959.07" y="1148.65" width="19.44" height="132.58" rx="9.72" transform="translate(2021.52 -2450.51) rotate(45)"/><rect class="cls-2" x="3538.91" y="1133.36" width="19.44" height="132.58" rx="9.72" transform="translate(191.09 2860.63) rotate(-45)"/><circle class="cls-12" cx="3756.83" cy="1377.33" r="144.08"/><path class="cls-2" d="M3730.34,1343.52c0-20.85,9.54-32.16,29.68-32.16,19.09,0,29,11.31,29,31.1v3.18h-18.38v-4.41c0-8.84-3.89-12.2-10.08-12.2-6.89,0-10.78,3.36-10.78,15.2v22.62c3.36-7.07,9.37-11,18-11,14.31,0,21.56,10.08,21.56,28.28v22.62c0,19.79-10.43,31.1-29.51,31.1s-29.51-11.31-29.51-31.1Zm19.43,42.24V1408c0,8.83,3.89,12,10.08,12s10.07-3.18,10.07-12v-22.27c0-8.84-3.89-12.19-10.07-12.19S3749.77,1376.92,3749.77,1385.76Z"/><path class="cls-65" d="M3300.89,2701.1s4.3,9.2,4.3,15.55-1,18.2-14.93,17.39-15.76-1-15.76-1-29.46,5.73-37.44-1.43,7.17-9.09,17.6-13.65,23.12-9.88,26-14.79Z"/><path class="cls-65" d="M3368.13,2688.72a22.22,22.22,0,0,1-3.17,10.58c-3.28,5.72-14.47,23.11-14.23,27.61s3.29,6.69,7.91,6.69,12.41-.24,19.1-4.74,11.07-24.33,14.11-26.76,5-3.65,5.23-7.06-4-19.34-4-19.34Z"/><path class="cls-66" d="M3286.25,2425.8s-16.54,128.58-16.13,143,6.8,137,6.8,137,16.72,4.55,26.22-3.72c0,0,8.74-91.1,2.12-128.72l23.65-85.8s1.16,75.87,6.12,98.61,33.1,102.51,33.1,102.51,16.33,5.36,25.84-9.53c0,0-6.43-66.52-20.9-101.25,0,0,8.27-119.48-2.07-152.14Z"/><path class="cls-67" d="M3379.91,2345.76s3.83,14.37,8.05,20.5c0,0-1,13.6,1.34,21.65s7.66,28.36,6.9,36.8-11.31,23.57-6.71,28,6.78-1.34,6.78-1.34,3.19,10.35,1.84,14.18a4.12,4.12,0,0,0,6.14,2.3c4.6-2.3,14.29-10,7.91-32.19,0,0,3.5-59.41,0-72.44,0,0-4.85-23.38-10.4-30.08Z"/><path class="cls-67" d="M3234.78,2349.83l-4.17,7.18s-20.92,10.26-49.68,32.79c0,0-31.58-5.84-31-3s13.48,9.25,13.48,9.25-10.06,10.87-21.13,9.66c0,0,5.64,15.29,18.71,16.29s28.57-16.69,28.57-16.69,45.66-17.3,57.53-32.19L3262,2357Z"/><path class="cls-68" d="M3295.89,2309.89c-5.22,11.05-23.66,40.59-32.07,53.91-2.59,4.1-4.23,6.67-4.23,6.67-14.46-3-27-16.65-27-16.65s1.72-3.13,4.46-8.07c9.45-17,31-55.53,35.52-61.24,5.87-7.37,12.41-1.36,17.05,1.09C3289.61,2285.6,3302.71,2295.42,3295.89,2309.89Z"/><path class="cls-69" d="M3329.48,2265.32c26.29-3.22,45.88,8.92,48.83,18.26s-6.45,121.74-1.89,141.85c0,0,6.43,15.29-46.94,12.07s-51.22-6.7-49.35-21.18-8.67-133.3-.71-136.79S3301.12,2268.79,3329.48,2265.32Z"/><path class="cls-68" d="M3412.16,2345.49s-8.79,7.29-30.11,12.53c0,0-1.55-3.15-3.8-8-5.88-12.69-16.56-37-17-47.16-.56-14,.55-19.08,6.36-23.76,5-4,14.4-.18,22.81,16.46,5.71,11.29,13.65,30.22,18.17,41.25C3410.78,2342,3412.16,2345.49,3412.16,2345.49Z"/><path class="cls-70" d="M3412.16,2345.49s-8.79,7.29-30.11,12.53c0,0-1.55-3.15-3.8-8,7.12-1.86,19.41-5.83,30.38-13.21C3410.78,2342,3412.16,2345.49,3412.16,2345.49Z"/><path class="cls-70" d="M3263.82,2363.8c-2.59,4.1-4.23,6.67-4.23,6.67-14.46-3-27-16.65-27-16.65s1.72-3.13,4.46-8.07A119,119,0,0,0,3263.82,2363.8Z"/><path class="cls-67" d="M3283.71,2197.56c-8,3.77-2.62,47.55,15.08,57.72,0,0,43.94.65,30.5-45.91C3329.29,2209.37,3322.73,2179.2,3283.71,2197.56Z"/><path class="cls-67" d="M3302.07,2246.64s8.42,9.86,9.53,26.86c0,0,19.71,9.06,29.25-8.58l-11.13-46.41Z"/><path class="cls-71" d="M3263.82,2190.3s4.43,26.64,57.64,12c0,0,.95,15.1,7.94,19.23l6.89,24.39s15.53-34.44-4.17-54.28c0,0-2.35-13.57-21.1-9.76S3283.37,2189.67,3263.82,2190.3Z"/><path class="cls-67" d="M3326.54,2220.9s2.7-11.44,8.43-8.58,1.9,15.09-6.52,14.78Z"/><ellipse class="cls-3" cx="3323.23" cy="2733.3" rx="101.49" ry="12.01"/><path class="cls-72" d="M3480.2,2480.61h-68.29a2.42,2.42,0,0,1-2.41-2.41h0a2.42,2.42,0,0,1,2.41-2.41h68.29a2.41,2.41,0,0,1,2.41,2.41h0A2.42,2.42,0,0,1,3480.2,2480.61Z"/><path class="cls-72" d="M3410.18,2472.07l-14.95-79.61a3.15,3.15,0,0,0-3.09-2.56h-51.65a3.13,3.13,0,0,0-3.08,3.71l14.75,79.61a3.15,3.15,0,0,0,3.09,2.57h51.84A3.14,3.14,0,0,0,3410.18,2472.07Z"/><path class="cls-73" d="M3408.81,2472.07l-15-79.61a3.13,3.13,0,0,0-3.08-2.56h-51.65a3.13,3.13,0,0,0-3.08,3.71l14.75,79.61a3.15,3.15,0,0,0,3.09,2.57h51.84A3.14,3.14,0,0,0,3408.81,2472.07Z"/><rect class="cls-73" x="3351.27" y="2475.79" width="60.89" height="4.82" rx="2.2"/><path class="cls-74" d="M3421.9,2479.25h-6a1.12,1.12,0,0,1-1.12-1.12h0a1.12,1.12,0,0,1,1.12-1.12h6a1.12,1.12,0,0,1,1.12,1.12h0A1.12,1.12,0,0,1,3421.9,2479.25Z"/><path class="cls-74" d="M3432.18,2479.25h-6a1.13,1.13,0,0,1-1.13-1.12h0a1.13,1.13,0,0,1,1.13-1.12h6a1.13,1.13,0,0,1,1.13,1.12h0A1.13,1.13,0,0,1,3432.18,2479.25Z"/><ellipse class="cls-3" cx="3524.02" cy="2735.92" rx="134.69" ry="14.03"/><path class="cls-75" d="M3389,2630.78s-13.94,17.46-30.49,15.51c0,0-1.69,9.77,9.38,11.73s26.71,0,26.71,0l14.73-20.85Z"/><path class="cls-76" d="M3358.48,2646.29s-27.75-1.17-33.35-4.17c0,0-5.48-.52,1.69,7.56s31.62,22.41,55.42,18.63l-2.13,11.07,3.73,1.83,11.15-23.79S3375.42,2663.1,3358.48,2646.29Z"/><path class="cls-77" d="M3509.1,2314.53s-9.28-19.85,14.57-24.53,35.46,12.49,39,25.86c0,0,28.77-7.58,31.66,27.87,0,0,56.42,21.19,5.13,70.69l-39.69-11.9-22.07-69.27-21.4-14.93Z"/><path class="cls-75" d="M3509.78,2302.07s-5.05,31,12.12,53.59c0,0,12.46-4,15.83,0,1.68,2,4.59,7.79,6.61,12.84,0,0-3.88,1.64-3.83,2.11a17.52,17.52,0,0,0,.43,3.23l29.12-5.93s-13.81-25.39-15.49-42.23-6.74-31.32-21.89-29.13S3509.78,2302.07,3509.78,2302.07Z"/><path class="cls-77" d="M3530.73,2309.37s24.21,20.26,32.44,40.67l10-17.21L3552,2310.29l-19.72-10.21Z"/><path class="cls-77" d="M3509.78,2302.07s2.53,28.23,48.23,35l-1.79-29.57L3544,2295.89l-13.3-2.69-13.85,2.33Z"/><path class="cls-78" d="M3618.69,2617.6h-60.61v-8.31h60.53c1.69,0,34.07-1.42,34.07-39.63,0-20-6.22-27.81-12.79-36-7.27-9.12-14.79-18.54-14.79-42h8.31c0,20.59,6.3,28.49,13,36.85,7.18,9,14.61,18.31,14.61,41.24,0,24.26-11.51,36.05-21.16,41.66a47.68,47.68,0,0,1-21.11,6.28Z"/><path class="cls-75" d="M3501.16,2655.36s20.12,40.48,11.5,47.89c-9,7.76-25,2.16-25,2.16s4.09-15.64-5.77-45.72Z"/><path class="cls-79" d="M3512.66,2512.08l-71.4,53.4s37.34,91.39,38,108.75c0,0,18.66-1.31,28.49-8.84l-26.2-82.55,99.92-15.52-3.61-41.15-21.62-16.71Z"/><path class="cls-75" d="M3461.71,2468s-3.51,5.67-17.5,3.85c0,0-12.31,1.56-16.24,5.42,0,0-1.16,0,1.63-3.66s11.49-16.06,27.47-12.81l6.91,2.56Z"/><path class="cls-76" d="M3457.72,2461s4.15,3.07,3.51,7.73c0,0,43.22,10.41,47.57,9.73s28.79-28.41,28.79-28.41l-19.53-15s-6.83,27.1-13.14,28.33S3457.72,2461,3457.72,2461Z"/><path class="cls-80" d="M3544.34,2368.5s-1.51,9,23.77-3.44l18.82,30.19s-6,69.47-3.34,83.23,9.36,40.74,9.36,40.74-68.9,8.25-80.27-4.68l9.81-54.67-1.33-52.58,7.8-23.85Z"/><path class="cls-81" d="M3544.32,2368.5s-21.41,20-19,82.78-14.27,65.94-14.27,65.94l-3.34-1.56s13.6-48.47,10.93-74.41S3512.88,2380.31,3544.32,2368.5Z"/><path class="cls-75" d="M3511.1,2484.21s-7.69,5.63-25.26-4.25c0,0-17.15-4.53-24.43-1.51,0,0-1.51-.69,4.12-4s23.82-15.14,43.27-2.29l7.79,7.09Z"/><path class="cls-82" d="M3592.92,2519.22l-153.17,2.55a4.33,4.33,0,0,0-3.88,2.56c-7.27,16.13-47.48,104.67-55.22,107.65l27.19,19,41.5-91.3s115.74,18.25,136.7,5.81C3612.77,2549.61,3592.92,2519.22,3592.92,2519.22Z"/><path class="cls-76" d="M3488.2,2702.24s-12.55,24.35-22.9,30.6c0,0-2.16,3.61,6.5,1.45S3515,2710,3515,2710l6.08,12,3-1.74-9.35-26.1S3512.5,2702.48,3488.2,2702.24Z"/><path class="cls-81" d="M3568.38,2364.68s-28.83,11.17-28.83,74.66-5.45,97.77-5.45,97.77,42-23.63,65.92-9.87c0,0-12.43-31.94-8.79-60.24s13.18-71.92.43-85.37S3568.38,2364.68,3568.38,2364.68Z"/><path class="cls-76" d="M3586.25,2378.63s35.09,8.38-7.94,121.58c0,0-15.23,5.29-68.63-15,0,0,3.53-7.94-.88-13l46.78,6.62s17.43-31.55,8.83-81.2C3564.41,2397.6,3573,2379.07,3586.25,2378.63Z"/><path class="cls-78" d="M3580.05,2611c0,4.83-10.16,11.25-22.29,11.25s-21.65-6.42-21.65-11.25,9.52-6.26,21.65-6.26S3580.05,2606.11,3580.05,2611Z"/><rect class="cls-83" x="3493.1" y="2569.66" width="129.97" height="33.87" rx="16.93"/><rect class="cls-78" x="3507.75" y="2603.53" width="103.18" height="7.42" rx="3.32"/><path class="cls-78" d="M3558.29,2696.08v-.63a5.51,5.51,0,0,1-5.5-5.5v-69.81a5.51,5.51,0,0,1,5.5-5.5h0a5.52,5.52,0,0,1,5.5,5.5V2690C3563.79,2693,3561.31,2696.08,3558.29,2696.08Z"/><path class="cls-78" d="M3600.7,2720.93l-43-24.85a5.18,5.18,0,0,1-1.89-7.06h0a5.18,5.18,0,0,1,7.06-1.89l43,24.85a5.18,5.18,0,0,1,1.89,7.06h0A5.19,5.19,0,0,1,3600.7,2720.93Z"/><path class="cls-78" d="M3515.76,2720.93l43-24.85a5.19,5.19,0,0,0,1.89-7.06h0a5.19,5.19,0,0,0-7.06-1.89l-43,24.85a5.17,5.17,0,0,0-1.89,7.06h0A5.18,5.18,0,0,0,3515.76,2720.93Z"/><circle class="cls-78" cx="3610.31" cy="2720.51" r="14.76" transform="translate(-866.25 3349.69) rotate(-45)"/><circle class="cls-84" cx="3610.31" cy="2720.51" r="8.34"/><circle class="cls-78" cx="3509.66" cy="2720.51" r="14.76" transform="translate(-895.74 3278.52) rotate(-45)"/><circle class="cls-84" cx="3509.66" cy="2720.51" r="8.34"/><path class="cls-85" d="M3660.88,2430.51c-4,12-13.81,48-.43,80.7a3.17,3.17,0,0,1-2.93,4.37h-36.4a3.15,3.15,0,0,1-2.72-1.53c-3.23-5.39-11.9-26.48.53-85.21a3.18,3.18,0,0,1,3.11-2.52h35.83A3.18,3.18,0,0,1,3660.88,2430.51Z"/><path class="cls-83" d="M3653.27,2431.19c-4.11,12.56-13.2,47.35-.51,79.27a3.72,3.72,0,0,1-3.44,5.12H3614a3.69,3.69,0,0,1-3.21-1.85c-3.36-5.86-11.45-27.15.62-84.46a3.73,3.73,0,0,1,3.64-2.95h34.64A3.72,3.72,0,0,1,3653.27,2431.19Z"/><rect class="cls-86" x="2913.39" y="2480.61" width="582.29" height="10.14"/><rect class="cls-87" x="2913.39" y="2485.68" width="582.29" height="5.07"/><rect class="cls-88" x="2968.41" y="2490.75" width="8.06" height="243.86"/><rect class="cls-88" x="3426.66" y="2490.75" width="8.06" height="243.86"/><ellipse class="cls-3" cx="3173.47" cy="2735.92" rx="134.69" ry="14.03"/><path class="cls-75" d="M3119.71,2428.09s.87-22.28-5.27-26.06c-12.35-7.61-25.36.43-11.91,26.06Z"/><path class="cls-23" d="M3115.43,2709.27l4.85,22.43a2.09,2.09,0,0,1-2,2.54H3057.5a2.09,2.09,0,0,1-.84-4c9.83-4.32,33.84-11.72,39-20.17a2.1,2.1,0,0,1,1.61-1l15.94-1.44A2.09,2.09,0,0,1,3115.43,2709.27Z"/><path class="cls-23" d="M3172.48,2684.47l15.08,17.29a2.09,2.09,0,0,1-.56,3.21l-53.17,29.36a2.09,2.09,0,0,1-2.68-3.1c6.52-8.53,24-26.61,24.39-36.51a2.11,2.11,0,0,1,.92-1.65l13.26-9A2.11,2.11,0,0,1,3172.48,2684.47Z"/><path class="cls-89" d="M3279.11,2541.47s2.33,57.36-139.46,74.3l40.74,73.8-31.65,13-44.89-94.73-2.76-19.6Z"/><path class="cls-80" d="M3194.73,2533.89l-99.2,28.66a23.64,23.64,0,0,0-16.92,25.43l14.22,122.72s17.63,5.65,27-2.69l-9.36-109.18s161.75,20.4,169.16-58.81Z"/><path class="cls-75" d="M3182.42,2314.51s-8.39,36.82,8.93,50.68a22,22,0,0,0,12-2.19l3.72,17.51,28.26-2.19-6.93-56.89-13.67-19.32H3193.9Z"/><path class="cls-90" d="M3181.87,2322.89s-8.75-9.84,0-18c0,0-2-19.14,29.72-13.12,0,0,15.68-2.19,21.51,8.75,0,0,17,25.16,0,58.52,0,0-31,6-34.09-18.41,0,0,.36-13.28-8.39-15.48A8.1,8.1,0,0,1,3181.87,2322.89Z"/><path class="cls-78" d="M3240.59,2626c0,4.39-9.21,10.21-20.22,10.21s-19.64-5.82-19.64-10.21,8.63-5.67,19.64-5.67S3240.59,2621.58,3240.59,2626Z"/><rect class="cls-83" x="3161.7" y="2588.51" width="117.92" height="30.73" rx="15.36"/><rect class="cls-78" x="3175" y="2619.23" width="93.62" height="6.73" rx="3.01"/><path class="cls-78" d="M3220.85,2698.57h0a5,5,0,0,1-5-5v-59.27a5,5,0,0,1,5-5h0a5,5,0,0,1,5,5v59.27A5,5,0,0,1,3220.85,2698.57Z"/><path class="cls-78" d="M3259.33,2721.23l-39-22.54a4.7,4.7,0,0,1-1.72-6.41h0a4.71,4.71,0,0,1,6.41-1.72l39,22.55a4.69,4.69,0,0,1,1.72,6.4h0A4.7,4.7,0,0,1,3259.33,2721.23Z"/><path class="cls-78" d="M3182.26,2721.23l39-22.54a4.71,4.71,0,0,0,1.71-6.41h0a4.7,4.7,0,0,0-6.4-1.72l-39,22.55a4.7,4.7,0,0,0-1.71,6.4h0A4.69,4.69,0,0,0,3182.26,2721.23Z"/><circle class="cls-78" cx="3268.05" cy="2720.85" r="13.39"/><circle class="cls-84" cx="3268.35" cy="2721.15" r="7.57" transform="translate(-966.86 3108.08) rotate(-45)"/><circle class="cls-78" cx="3177.12" cy="2721.24" r="13.39" transform="translate(-201.28 5188.16) rotate(-76.72)"/><circle class="cls-84" cx="3177.12" cy="2721.24" r="7.57" transform="translate(-201.28 5188.16) rotate(-76.72)"/><path class="cls-46" d="M3200.58,2382.12l1.27-7.49s19.33-9,39.71-4.18l3.19,7.58s60.15,3.57,34.36,163.44c0,0-46.92,25.27-91.79-6.71,0,0-11.34-115-13.41-140Z"/><path class="cls-46" d="M3173.91,2394.77s-49.89,72.42-39.77,95.4c0,0,5.7,10.91,19.21,4.68S3207.06,2427.9,3173.91,2394.77Z"/><rect class="cls-83" x="3212.09" y="2410.16" width="92.3" height="92.3" rx="11.46"/><rect class="cls-85" x="3215.86" y="2410.16" width="92.3" height="92.3" rx="11.46"/><circle class="cls-78" cx="3265.65" cy="2458.29" r="20.25" transform="translate(-692.17 1436.83) rotate(-22.5)"/><path class="cls-78" d="M3222.63,2629.72l-3.93-7.51,2,3.75-2-3.73c.1-.06,10.71-6.11,21.24-29.1,9.81-21.42,21.51-62.2,21.51-134.84h8.48C3269.89,2603.36,3224.56,2628.72,3222.63,2629.72Z"/><path class="cls-46" d="M3137.24,2493.8l-34.93-66.55s5.48-10,15.23-6l44.16,47.59Z"/></g></g></svg>