<svg xmlns="http://www.w3.org/2000/svg" xmlns:xlink="http://www.w3.org/1999/xlink" viewBox="0 0 3283.66 1172.61"><defs><style>.cls-1{fill:url(#linear-gradient);}.cls-2{fill:#9c8ff4;}.cls-3{fill:url(#linear-gradient-2);}.cls-4{fill:#f4f3ff;}.cls-5{opacity:0.4;}.cls-10,.cls-11,.cls-12,.cls-13,.cls-18,.cls-19,.cls-22,.cls-25,.cls-6{fill:none;}.cls-11,.cls-12,.cls-23,.cls-24,.cls-25,.cls-6{stroke:#9c8ff4;}.cls-10,.cls-11,.cls-12,.cls-13,.cls-18,.cls-19,.cls-22,.cls-23,.cls-24,.cls-25,.cls-6{stroke-linejoin:round;}.cls-6{stroke-width:40px;}.cls-23,.cls-7{fill:#d9ddff;}.cls-8{fill:url(#linear-gradient-3);}.cls-9{fill:url(#linear-gradient-4);}.cls-10{stroke:#fff;}.cls-10,.cls-12,.cls-13,.cls-18,.cls-19,.cls-22,.cls-23,.cls-24,.cls-25{stroke-linecap:round;}.cls-10,.cls-25{stroke-width:6px;}.cls-11{stroke-width:20px;}.cls-12,.cls-23,.cls-24{stroke-width:6.6px;}.cls-13,.cls-18{stroke:#d9ddff;}.cls-13{stroke-width:12.37px;}.cls-14{fill:#2e2e2e;}.cls-15{fill:#ffa985;}.cls-16{fill:#e88e67;}.cls-17{fill:#4543aa;}.cls-18{stroke-width:4.12px;}.cls-19{stroke:#362e8b;stroke-width:6.8px;}.cls-20{fill:#fff;}.cls-21{fill:#e05050;}.cls-22{stroke:#4099ff;stroke-width:8.25px;}.cls-24{fill:#ebedff;}</style><linearGradient id="linear-gradient" x1="396.6" y1="1211.01" x2="1429.4" y2="178.22" gradientUnits="userSpaceOnUse"><stop offset="0" stop-color="#deebff"/><stop offset="0.79" stop-color="#fbf1ff"/></linearGradient><linearGradient id="linear-gradient-2" x1="2488.5" y1="1041.5" x2="2345.24" y2="22.12" gradientUnits="userSpaceOnUse"><stop offset="0" stop-color="#f0e3ff"/><stop offset="0.24" stop-color="#fff"/></linearGradient><linearGradient id="linear-gradient-3" x1="2274.56" y1="588.76" x2="2723.69" y2="139.64" gradientUnits="userSpaceOnUse"><stop offset="0.14" stop-color="#ff1a79"/><stop offset="0.87" stop-color="#ffe15d"/></linearGradient><linearGradient id="linear-gradient-4" x1="1793.95" y1="353.2" x2="1951.57" y2="353.2" gradientTransform="translate(798.27 -1220.79) rotate(45)" gradientUnits="userSpaceOnUse"><stop offset="0" stop-color="#deebff"/><stop offset="0.79" stop-color="#d9ddff"/></linearGradient></defs><title>Asset 2</title><g id="Layer_2" data-name="Layer 2"><g id="content"><g id="Bg"><path class="cls-1" d="M1716.41,467.84c-107.53-83.25-241.69-79.22-370.08-75.7-49.74,1.37-101.39,6.29-150.93-.72-18.1-2.56-37-2.78-50.85-16.06-22.81-21.87-5.68-65.6.67-90.46,16.64-65.18,35.54-135.51,2.85-198.71C1107.27,7.34,999.25-3.62,920.34.85,861,4.22,802.57,22.9,746.79,42.25c-126.63,43.94-247.4,118-345.93,208.7-35.36,32.57-68.33,68.35-95.25,108.23-50,74-90.92,164.7-6.77,232.87,22.35,18.11,48,30,74.43,40.6,47.73,19.2,98.34,32.43,140.89,62.54,10.09,7.13,20.78,14.29,24.23,27.09,11.68,43.29-76.74,92.92-104.59,112.21C383,869.68,329.1,903,293.62,954.53c-52.06,75.57-14.22,137,19.28,172.77H1385.62c86.19-50.67,169.93-119.57,238.39-187,45.93-45.22,92.16-97.37,123.49-153.94C1806.73,679.47,1822.93,550.31,1716.41,467.84Z"/></g><path class="cls-2" d="M3037.15,1003.27h-1a8,8,0,0,1,0-16h1a8,8,0,0,1,0,16Z"/><path class="cls-2" d="M3193.33,1003.27h-1.95a8,8,0,0,1,0-16h1.95a8,8,0,0,1,0,16Zm-31.24,0h-2a8,8,0,0,1,0-16h2a8,8,0,0,1,0,16Zm-31.23,0h-2a8,8,0,0,1,0-16h2a8,8,0,0,1,0,16Zm-31.24,0h-1.95a8,8,0,0,1,0-16h1.95a8,8,0,0,1,0,16Zm-31.23,0h-2a8,8,0,0,1,0-16h2a8,8,0,0,1,0,16Zm153.9-3.16a8,8,0,0,1-2.3-15.66l1.67-.53a8,8,0,0,1,5,15.2l-2.07.65A8,8,0,0,1,3222.29,1000.11Zm27.2-14.9a8,8,0,0,1-5.21-14.07l1.31-1.16a8,8,0,0,1,10.73,11.87c-.54.49-1.08,1-1.62,1.43A8,8,0,0,1,3249.49,985.21Zm18.86-24.61a8,8,0,0,1-7.21-11.44c.25-.53.49-1,.73-1.59a8,8,0,1,1,14.61,6.53q-.43,1-.9,1.95A8,8,0,0,1,3268.35,960.6Zm7.29-30.12h-.24a8,8,0,0,1-7.76-8.22c0-.58,0-1.17,0-1.75a8,8,0,0,1,8-8h0a8,8,0,0,1,8,8c0,.72,0,1.44,0,2.15A8,8,0,0,1,3275.64,930.48Zm0-31.24a8,8,0,0,1-8-8v-2a8,8,0,0,1,16,0v2A8,8,0,0,1,3275.66,899.24Zm0-31.23a8,8,0,0,1-8-8v-2a8,8,0,0,1,16,0v2A8,8,0,0,1,3275.66,868Zm0-31.24a8,8,0,0,1-8-8v-1.95a8,8,0,1,1,16,0v1.95A8,8,0,0,1,3275.66,836.77Zm0-31.23a8,8,0,0,1-8-8v-2a8,8,0,1,1,16,0v2A8,8,0,0,1,3275.66,805.54Zm0-31.24a8,8,0,0,1-8-8v-1.95a8,8,0,1,1,16,0v1.95A8,8,0,0,1,3275.66,774.3Z"/><path class="cls-2" d="M3275.66,743a8,8,0,0,1-8-8v-1a8,8,0,0,1,16,0v1A8,8,0,0,1,3275.66,743Z"/><rect class="cls-3" x="1608.08" y="118.34" width="1617.59" height="826.93" rx="56.51"/><path class="cls-4" d="M3169.15,132.34a42.56,42.56,0,0,1,42.51,42.52v713.9a42.56,42.56,0,0,1-42.51,42.51H1664.59a42.56,42.56,0,0,1-42.51-42.51V174.86a42.56,42.56,0,0,1,42.51-42.52H3169.15m0-14H1664.59a56.52,56.52,0,0,0-56.51,56.52v713.9a56.51,56.51,0,0,0,56.51,56.51H3169.15a56.51,56.51,0,0,0,56.51-56.51V174.86a56.52,56.52,0,0,0-56.51-56.52Z"/><g class="cls-5"><line class="cls-6" x1="2579.91" y1="597.79" x2="3102.02" y2="597.79"/><line class="cls-6" x1="1982.91" y1="597.79" x2="2534.26" y2="597.79"/><line class="cls-6" x1="1740.23" y1="597.79" x2="1914.04" y2="597.79"/><line class="cls-6" x1="2956.32" y1="687.79" x2="3102.02" y2="687.79"/><line class="cls-6" x1="2170.07" y1="687.79" x2="2908.95" y2="687.79"/><line class="cls-6" x1="1740.23" y1="687.79" x2="2113.91" y2="687.79"/><line class="cls-6" x1="1740.23" y1="777.79" x2="2253.59" y2="777.79"/></g><path class="cls-7" d="M2108,429.78a5.84,5.84,0,0,1-5.73-6.81l7-41-29.75-29a5.83,5.83,0,0,1,3.23-9.93l41.11-6,18.39-37.26a5.78,5.78,0,0,1,5.22-3.24h0a5.79,5.79,0,0,1,5.22,3.24h0l18.39,37.26,41.11,6a5.83,5.83,0,0,1,3.23,9.93l-29.75,29,7,41a5.83,5.83,0,0,1-8.45,6.14l-36.77-19.34-36.77,19.34A5.85,5.85,0,0,1,2108,429.78Zm38.6-20.47Zm1.78,0h0ZM2124.86,337h0Zm45.21,0h0Zm-24.32-33.68Zm138.06,126.49a5.85,5.85,0,0,1-3.42-1.12,5.78,5.78,0,0,1-2.31-5.69l7-41-29.75-29a5.83,5.83,0,0,1,3.23-9.93l41.11-6,18.39-37.26a5.77,5.77,0,0,1,5.22-3.24h0a5.79,5.79,0,0,1,5.22,3.24h0l18.38,37.26,41.12,6a5.82,5.82,0,0,1,3.22,9.93l-29.75,29,7,41a5.83,5.83,0,0,1-8.45,6.14l-36.77-19.34-36.77,19.34A5.85,5.85,0,0,1,2283.81,429.78Zm38.6-20.47Zm1.78,0h0ZM2300.69,337h0Zm45.21,0h0Zm-24.32-33.68Zm138.06,126.49a5.83,5.83,0,0,1-5.73-6.81l7-41-29.75-29a5.83,5.83,0,0,1,3.23-9.93l41.11-6,18.38-37.26a5.79,5.79,0,0,1,5.23-3.24h0a5.78,5.78,0,0,1,5.22,3.25l18.38,37.25,41.12,6a5.82,5.82,0,0,1,3.22,9.93l-29.75,29,7,41a5.83,5.83,0,0,1-8.45,6.14l-36.77-19.34-36.78,19.34A5.84,5.84,0,0,1,2459.64,429.78Zm38.6-20.47Zm1.78,0h0ZM2476.52,337h0Zm45.21,0h0Zm-24.32-33.68Zm217,126.49a5.84,5.84,0,0,1-2.71-.67L2675,409.77l-36.77,19.34a5.82,5.82,0,0,1-8.44-6.14l7-41L2607,353a5.83,5.83,0,0,1,3.22-9.93l41.12-6,18.38-37.26a5.82,5.82,0,0,1,10.44,0h0l18.39,37.26,41.11,6a5.83,5.83,0,0,1,3.23,9.93l-29.75,29,7,41a5.83,5.83,0,0,1-5.73,6.81Zm-40.38-20.47h0Zm1.79,0h0ZM2652.34,337Zm45.22,0Zm192.71,92.81a5.85,5.85,0,0,1-2.72-.67l-36.77-19.34L2814,429.11a5.83,5.83,0,0,1-8.45-6.14l7-41-29.75-29a5.82,5.82,0,0,1,3.22-9.93l41.12-6,18.38-37.26a5.82,5.82,0,0,1,10.44,0h0l18.39,37.26,41.11,6a5.83,5.83,0,0,1,3.23,9.93L2889,382l7,41a5.83,5.83,0,0,1-5.73,6.81Zm-40.38-20.47h0Zm1.79,0h0ZM2828.17,337Zm45.22,0Zm-24.32-33.68Z"/><path class="cls-8" d="M2108,419.78a5.84,5.84,0,0,1-5.73-6.81l7-41-29.75-29a5.83,5.83,0,0,1,3.23-9.93l41.11-6,18.39-37.26a5.78,5.78,0,0,1,5.22-3.24h0a5.79,5.79,0,0,1,5.22,3.24h0l18.39,37.26,41.11,6a5.83,5.83,0,0,1,3.23,9.93l-29.75,29,7,41a5.83,5.83,0,0,1-8.45,6.14l-36.77-19.34-36.77,19.34A5.85,5.85,0,0,1,2108,419.78Zm38.6-20.47Zm1.78,0h0ZM2124.86,327h0Zm45.21,0h0Zm-24.32-33.68Zm138.06,126.49a5.85,5.85,0,0,1-3.42-1.12,5.78,5.78,0,0,1-2.31-5.69l7-41-29.75-29a5.83,5.83,0,0,1,3.23-9.93l41.11-6,18.39-37.26a5.77,5.77,0,0,1,5.22-3.24h0a5.79,5.79,0,0,1,5.22,3.24h0l18.38,37.26,41.12,6a5.82,5.82,0,0,1,3.22,9.93l-29.75,29,7,41a5.83,5.83,0,0,1-8.45,6.14l-36.77-19.34-36.77,19.34A5.85,5.85,0,0,1,2283.81,419.78Zm38.6-20.47Zm1.78,0h0ZM2300.69,327h0Zm45.21,0h0Zm-24.32-33.68Zm138.06,126.49a5.83,5.83,0,0,1-5.73-6.81l7-41-29.75-29a5.83,5.83,0,0,1,3.23-9.93l41.11-6,18.38-37.26a5.79,5.79,0,0,1,5.23-3.24h0a5.78,5.78,0,0,1,5.22,3.25l18.38,37.25,41.12,6a5.82,5.82,0,0,1,3.22,9.93l-29.75,29,7,41a5.83,5.83,0,0,1-8.45,6.14l-36.77-19.34-36.78,19.34A5.84,5.84,0,0,1,2459.64,419.78Zm38.6-20.47Zm1.78,0h0ZM2476.52,327h0Zm45.21,0h0Zm-24.32-33.68Zm217,126.49a5.84,5.84,0,0,1-2.71-.67L2675,399.77l-36.77,19.34a5.82,5.82,0,0,1-8.44-6.14l7-41L2607,343a5.83,5.83,0,0,1,3.22-9.93l41.12-6,18.38-37.26a5.82,5.82,0,0,1,10.44,0h0l18.39,37.26,41.11,6a5.83,5.83,0,0,1,3.23,9.93l-29.75,29,7,41a5.83,5.83,0,0,1-5.73,6.81Zm-40.38-20.47h0Zm1.79,0h0ZM2652.34,327Zm45.22,0Zm192.71,92.81a5.85,5.85,0,0,1-2.72-.67l-36.77-19.34L2814,419.11a5.83,5.83,0,0,1-8.45-6.14l7-41-29.75-29a5.82,5.82,0,0,1,3.22-9.93l41.12-6,18.38-37.26a5.82,5.82,0,0,1,10.44,0h0l18.39,37.26,41.11,6a5.83,5.83,0,0,1,3.23,9.93L2889,372l7,41a5.83,5.83,0,0,1-5.73,6.81Zm-40.38-20.47h0Zm1.79,0h0ZM2828.17,327Zm45.22,0Zm-24.32-33.68Z"/><circle class="cls-9" cx="1872.76" cy="353.2" r="78.81" transform="translate(298.77 1427.69) rotate(-45)"/><path class="cls-10" d="M1894.27,335.68c0,11.87-9.63,25.94-21.51,25.94s-21.5-14.07-21.5-25.94a21.51,21.51,0,1,1,43,0Z"/><path class="cls-10" d="M1829.25,418.91c0-14.27,2.23-46.45,43.51-46.45S1914,404.64,1914,418.91"/><line class="cls-11" x1="1851.26" y1="484.12" x2="2010.25" y2="484.12"/><line class="cls-11" x1="1740.23" y1="484.12" x2="1829.25" y2="484.12"/><path class="cls-2" d="M1566.08,496.31a8,8,0,0,1-8-8v-2a8,8,0,1,1,16,0v2A8,8,0,0,1,1566.08,496.31Zm0-32a8,8,0,0,1-8-8v-2a8,8,0,1,1,16,0v2A8,8,0,0,1,1566.08,464.31Zm0-32a8,8,0,0,1-8-8v-2a8,8,0,1,1,16,0v2A8,8,0,0,1,1566.08,432.31Zm0-32a8,8,0,0,1-8-8v-2a8,8,0,1,1,16,0v2A8,8,0,0,1,1566.08,400.31Zm0-32a8,8,0,0,1-8-8v-2a8,8,0,1,1,16,0v2A8,8,0,0,1,1566.08,368.31Zm0-32a8,8,0,0,1-8-8v-2a8,8,0,1,1,16,0v2A8,8,0,0,1,1566.08,336.31Zm0-32a8,8,0,0,1-8-8v-2a8,8,0,1,1,16,0v2A8,8,0,0,1,1566.08,304.31Zm0-32a8,8,0,0,1-8-8v-2a8,8,0,1,1,16,0v2A8,8,0,0,1,1566.08,272.31Zm0-32a8,8,0,0,1-8-8v-2a8,8,0,1,1,16,0v2A8,8,0,0,1,1566.08,240.31Zm0-32a8,8,0,0,1-8-8v-2a8,8,0,1,1,16,0v2A8,8,0,0,1,1566.08,208.31Zm0-32a8,8,0,0,1-8-8v-2a8,8,0,1,1,16,0v2A8,8,0,0,1,1566.08,176.31Zm1.67-31.87a8.14,8.14,0,0,1-1.68-.18,8,8,0,0,1-6.15-9.5c.15-.71.32-1.43.49-2.14a8,8,0,0,1,15.56,3.73c-.14.59-.28,1.17-.4,1.76A8,8,0,0,1,1567.75,144.44Zm13-29a8,8,0,0,1-6.44-12.73c.43-.59.87-1.18,1.32-1.76a8,8,0,0,1,12.66,9.79c-.37.47-.73.95-1.08,1.43A8,8,0,0,1,1580.73,115.46Zm23.71-21.15a8,8,0,0,1-4-15l1.94-1.07a8,8,0,0,1,7.56,14.1c-.52.28-1,.57-1.57.87A8,8,0,0,1,1604.44,94.31Zm30.24-9.61a8,8,0,0,1-.76-16c.74-.08,1.47-.14,2.21-.19a8,8,0,0,1,1.12,16c-.6,0-1.19.09-1.79.15A6.79,6.79,0,0,1,1634.68,84.7Zm386-.36h-2a8,8,0,0,1,0-16h2a8,8,0,0,1,0,16Zm-32,0h-2a8,8,0,0,1,0-16h2a8,8,0,0,1,0,16Zm-32,0h-2a8,8,0,0,1,0-16h2a8,8,0,0,1,0,16Zm-32,0h-2a8,8,0,0,1,0-16h2a8,8,0,0,1,0,16Zm-32,0h-2a8,8,0,0,1,0-16h2a8,8,0,0,1,0,16Zm-32,0h-2a8,8,0,0,1,0-16h2a8,8,0,0,1,0,16Zm-32,0h-2a8,8,0,0,1,0-16h2a8,8,0,0,1,0,16Zm-32,0h-2a8,8,0,0,1,0-16h2a8,8,0,0,1,0,16Zm-32,0h-2a8,8,0,0,1,0-16h2a8,8,0,0,1,0,16Zm-32,0h-2a8,8,0,0,1,0-16h2a8,8,0,0,1,0,16Zm-32,0h-2a8,8,0,0,1,0-16h2a8,8,0,0,1,0,16Zm-32,0h-2a8,8,0,0,1,0-16h2a8,8,0,0,1,0,16Z"/><g id="woman"><line class="cls-12" x1="3.3" y1="1124.19" x2="2256.95" y2="1124.19"/><line class="cls-12" x1="1391.79" y1="1150.61" x2="1789.41" y2="1150.61"/><line class="cls-12" x1="1271.45" y1="1169.31" x2="1503.57" y2="1169.31"/><line class="cls-12" x1="597.69" y1="1150.61" x2="918.95" y2="1150.61"/><g id="woman-2" data-name="woman"><path class="cls-7" d="M871.1,765.51c-11.12-11.06-32.76-7.34-48.34,8.31s-19.21,37.31-8.1,48.37,32.76,7.35,48.34-8.3S882.21,776.58,871.1,765.51Z"/><path class="cls-7" d="M1409.3,786.59c-1.2,17.09-20.34,29.65-42.74,28.08S1327,798,1328.17,780.88s20.34-29.65,42.74-28.07S1410.51,769.51,1409.3,786.59Z"/><path class="cls-7" d="M1288.34,912.08c15.18.89,26.53,17.75,25.36,37.66s-14.42,35.32-29.6,34.43-26.53-17.76-25.36-37.67S1273.17,911.19,1288.34,912.08Z"/><path class="cls-7" d="M1047.8,807.44c15.18.89,26.53,17.75,25.36,37.66s-14.42,35.32-29.6,34.43-26.53-17.76-25.36-37.66S1032.63,806.55,1047.8,807.44Z"/><path class="cls-7" d="M955.81,939.57c7.4-9.52,23.51-9.37,36,.33s16.6,25.28,9.2,34.79-23.5,9.36-36-.34S948.42,949.08,955.81,939.57Z"/><path class="cls-7" d="M818.58,673.09c7.39-9.51,23.5-9.36,36,.34s16.59,25.27,9.2,34.79-23.51,9.35-36-.34S811.18,682.6,818.58,673.09Z"/><path class="cls-7" d="M1259.8,1068.12c6.57-8.45,20.87-8.31,31.94.3s14.74,22.44,8.17,30.88-20.86,8.31-31.94-.3S1253.24,1076.56,1259.8,1068.12Z"/><path class="cls-7" d="M1137.3,990.16c-5.53-9.16-.28-22.46,11.73-29.71s26.23-5.71,31.76,3.44.28,22.46-11.73,29.72S1142.83,999.32,1137.3,990.16Z"/><path class="cls-7" d="M1290.51,698c-3.94,9.94-17.71,13.81-30.75,8.64s-20.42-17.42-16.48-27.36S1261,665.43,1274,670.6,1294.45,688,1290.51,698Z"/><path class="cls-7" d="M997.94,717.29c-5.53-9.16-.28-22.46,11.73-29.71s26.23-5.71,31.76,3.44.27,22.46-11.74,29.71S1003.46,726.44,997.94,717.29Z"/><path class="cls-7" d="M1190.24,813c6.57-8.44,20.87-8.31,32,.3s14.73,22.44,8.16,30.89-20.86,8.3-31.94-.31S1183.68,821.42,1190.24,813Z"/><path class="cls-7" d="M781.85,912.39c6.56-8.45,20.86-8.31,31.94.3s14.73,22.44,8.17,30.88-20.87,8.31-32-.3S775.28,920.83,781.85,912.39Z"/><path class="cls-7" d="M1484.63,725.34c6.57-8.44,20.87-8.31,31.94.3s14.74,22.44,8.17,30.88-20.86,8.31-31.94-.3S1478.07,733.79,1484.63,725.34Z"/><path class="cls-7" d="M1444.43,857.84c6.57-8.45,20.87-8.31,31.94.3s14.74,22.44,8.17,30.88-20.86,8.31-31.94-.3S1437.87,866.28,1444.43,857.84Z"/><path class="cls-13" d="M1547.43,790.54c-51.36,33.58-72,1.74-118.39,39.7-20.79,16.73-39,51.6-71,48.77-26.1-2.34-55.09-32.32-82.34-21.25-26.67,10.62-32.47,45.52-64.54,50.09-33.5,4.48-56.9-25.57-90-21.31-24.31,3.05-46.15,34.25-72.89,28.48-34.35-7.64-52.48-38.95-89.43-40.92C923.5,872,894.17,906.18,858.4,896.28c-17.48-4.95-30.06-21.06-43.93-31.07a166.13,166.13,0,0,0-50.4-24.55c-12.74-3.87-24.56-2.67-36.22.17"/><path class="cls-13" d="M1371.74,1001.6c-13.61,19.32-29.27,36.13-55.15,40.06-29.11,4.42-73.36-48.93-94.95-35.81-15.45,9.39-21,30.23-32.16,43.61-16.69,20-35.15,26.64-59.84,32.21-48.93,11.06-73.79-73-113.08-76.68-21.07-2-73.16,37.14-107.42,37.14"/><path class="cls-13" d="M1400.2,635.83c-14.84-5.92-28.8-9.49-40.55-5.12-25,9.3-29.27,82.16-58.63,101.29-34.18,22.26-74.93-8.19-111.32,6.89-28,11.59-26,55.13-55.86,70.17-42.31,21.32-77.81-31.12-117.2-35.24-24.45-2.58-27.27,23.13-44.5,33.69-20.92,12.83-21.33,7.12-45,4.24"/><path class="cls-14" d="M1029.69,318.39c18.49-32.48,67.36-24.25,82.71-9.93,20.62,19.24,15.11,52.37,32.19,74.1,7.67,9.76,22.27,16.24,32.69,22.31,19.7,11.47,37,26.19,47.32,47,39.28,79.54-30.08,177.2-107.75,198.71C987.64,686.4,946,501.89,963,409.46,968.63,378.84,1011.21,350.87,1029.69,318.39Z"/><path class="cls-12" d="M1029.69,318.39c18.49-32.48,67.36-24.25,82.71-9.93,20.62,19.24,15.11,52.37,32.19,74.1,7.67,9.76,22.27,16.24,32.69,22.31,19.7,11.47,37,26.19,47.32,47,39.28,79.54-30.08,177.2-107.75,198.71"/><path class="cls-15" d="M1122.6,530.88c-15.25,3.29-59.25,45.77-74.09,47.42-4.21.47-26.15-1-28.1.9-1,1,6.67,16.17,7.35,17.72,7.47,17.09,12.82,33.45,12.82,52.19a173.33,173.33,0,0,1-8.89,54.64c-2.57,7.69-6.71,10.64-8.6,18.4,46.09,36.26,107.93,13.22,144.41-12.08,42.06-29.18,65-79.16,66.54-88.76-14.09,3.05-22.67,6.79-37.15,5.19-47.25-5.26-71.71-44.85-69-90.66C1128.14,531.45,1126.12,530.12,1122.6,530.88Z"/><path class="cls-12" d="M1366.74,1113.8C1352.63,1029,1429.6,1007.29,1401.8,928c7.56,0,39.37,12.46,56.22,8,46.67-75.23,98.62-137.87,128.08-171.15-86.36-118-287.93-209.21-341.55-138C1175,768,1056.86,767.53,1018.12,728.21c-37-37.56-51.27-82.35-102-96.3-48.48-13.32-169.37,79.53-258.06,202-12.62,17.42,128,147.51,160.88,159.66,5.5,2,48.52-21.15,86.49-29.66,5.18,111.33-41.57,119.77-67.84,154.38"/><path class="cls-16" d="M1122.6,530.88c-15.54-1.41-59.25,45.77-74.09,47.42-4.21.47-26.15-1-28.1.9-1,1,6.67,16.17,7.35,17.72,3.92,9,37.36,20.05,59.07,19.9C1121.2,616.58,1137.31,532.21,1122.6,530.88Z"/><path class="cls-15" d="M1038.85,325c41.89,4.85,57.17,47.18,66.14,74.11,7.73,23.2,21.28,35,31.73,66.57s-14.32,109.63-39,119.71c-31.73,12.92-115.13,1-141.4-34C935.7,523.91,935.64,474,943.62,442.07,955.8,393.38,989.08,319.21,1038.85,325Z"/><path class="cls-16" d="M1081.87,421.53a61.63,61.63,0,0,0,.58,14.74,85.24,85.24,0,0,0,3.53,14.05,107.62,107.62,0,0,0,5.61,13.43c1.09,2.18,2.27,4.32,3.57,6.38a28.65,28.65,0,0,0,2.12,3,12.15,12.15,0,0,0,1.24,1.34,5.62,5.62,0,0,0,1.51,1.06,7.31,7.31,0,0,1-3.64-1.4,22.64,22.64,0,0,1-3.05-2.46,40,40,0,0,1-5-5.95,55.29,55.29,0,0,1-6.92-13.83,50,50,0,0,1-2.73-15.29A32,32,0,0,1,1081.87,421.53Z"/><path class="cls-16" d="M1106,486.57a19.22,19.22,0,0,1-4.46,8.5,13.57,13.57,0,0,1-4.27,2.9,19.66,19.66,0,0,1-5,1.26c-1.65.21-3.27.37-4.83.49a30.53,30.53,0,0,1-4.41-.06c-2.82-.19-5.08-.38-8.2.87a.31.31,0,0,1-.39-.16.41.41,0,0,1,0-.19,7.33,7.33,0,0,1,3.35-4.11,12.61,12.61,0,0,1,5.06-1.65c3.39-.49,6.34.58,9.18.62a12.83,12.83,0,0,0,7.79-2,14.17,14.17,0,0,0,3.14-2.92,29.45,29.45,0,0,0,2.52-3.77h0a.25.25,0,0,1,.36-.09A.26.26,0,0,1,1106,486.57Z"/><path class="cls-14" d="M1093.59,437.36c-3.48-3.41,15.26-16,18.73-5.63,2.07,6.2-.79,14.71-7.33,12.09-2.37-.95-2.12-4.62-4.46-5.21C1096.91,437.71,1096.11,439.83,1093.59,437.36Z"/><path class="cls-14" d="M1021.19,466.64c-1.74-5.82,18.76-13.59,23-7.84,3.87,5.26,1.31,16.25-6.54,15.68-6.64-.47-4-6.42-7.71-8.88C1027.48,464,1022.1,469.7,1021.19,466.64Z"/><path class="cls-14" d="M1084.18,415.62c-.85.83,1.78,8.25,15-.88.41-.31,12.13-7.82,12.13-8.94,0-1.81-3.54-3.16-4.9-3C1098.94,403.9,1089.68,410.23,1084.18,415.62Z"/><path class="cls-14" d="M1000.37,456.14c-.24-10.29,17.64-17,27.51-20.14,5-1.59,16.89-5.16,15.23,3.16-1.24,6.18-22.51,7.12-27.4,8.95C1010.62,450,1000.5,461.59,1000.37,456.14Z"/><path class="cls-17" d="M862.85,787.6c-54.66-10.22-103.82-63-112.63-125.91-3.16-22.59-2.77-49.87,3.79-72,10.86-36.59,38.29-61.74,50.74-96.92,6.11-17.28.93-39.23.15-57-.89-20.58,4.65-43.53,13-61.82,12.35-27,37.68-55.39,61.81-70,10.58-6.38,20.81-13.65,31.9-18.84,42.47-19.88,90.6-31.67,132.06-5.08,10.09,6.47,20,17.4,23.84,30,3.51,11.55,2.49,23.92,1.73,35.79-2.32,36.3-18,62.41-42.91,86.39-20.74,20-53.86,48.71-43.28,84.41,20.7,69.88,95,117.44,44.63,198.77-8.14,13.15-22,26.3-34.24,34.25-5.93,3.87-15,9.61-21.3,13.5C938.07,784.19,899.87,796.53,862.85,787.6Z"/><path class="cls-12" d="M1067.5,310.16c3.51,11.55,2.49,23.92,1.73,35.79-2.32,36.3-18,62.41-42.91,86.39-20.74,20-53.86,48.71-43.28,84.41,20.7,69.88,95,117.44,44.63,198.77-8.14,13.15-22,26.3-34.24,34.25-5.93,3.87-14.7,10.24-21.3,13.5"/><path class="cls-15" d="M988.85,501.6c-5.39.93-9.19-9-18.16-6.72-22.8,5.7-19.62,35.76-2.14,44.88,15.82,8.25,37.17-5.64,33.28-23.82C1001,511.93,994,500.71,988.85,501.6Z"/><path class="cls-16" d="M972,505.8c-10.25,4.85-3.94,29,8.64,23.37,14.83-6.68-5.26-9.78-7.14-12.39C971.76,514.4,978.56,502.68,972,505.8Z"/><path class="cls-18" d="M975.85,542.37c0-10.06,15.71-14.29,19.74-4.58,3.31,8,1.68,18.59-8.42,17.79-4.39-.35-9.5-6.51-6.84-11.05,2.85-4.86,13.11-1.43,8.42,2.7-.75.65-1.89,1-2.37,0"/><path class="cls-19" d="M1034.59,361.92c16-43.82-15.15-68.76-50.94-73.6-41.13-5.56-85.32,20.12-109,57.78-7.79,12.4-20.75,54.23-6.38,68.62,5,5,11.39,5.82,17.59,7.93"/><path class="cls-19" d="M985.41,385.07c.68,5.45,2,10.81,2.4,16.3C989,417,957.69,440.07,948.43,447c-31.65,23.53-71.72,43.61-87.52,85.61-14.43,38.37,5.67,73.07,43.13,72.65"/><path class="cls-19" d="M967.32,597.48c36.27,22,18.51,89.84-5.2,115.16S906.05,741,875.47,738.4C834,734.88,811.4,697,802.91,656c-1.83-8.86-1.68-26.72,4.18-33.85,13.31-16.23,41.11-7.24,40.44,15.6"/><path class="cls-14" d="M1112.93,510.47s-2.91,25.63-21.81,36.58c-9.74,4.35-34.83-17.61-35.69-18.93s36.86-12,47.92-15.2S1112.93,510.47,1112.93,510.47Z"/><path class="cls-20" d="M1108,513.16s-.41,9-4.3,11.33a48.08,48.08,0,0,1-20.76,5.9c-8.56.31-23.21-3.41-23.21-3.41s32.54-10.83,43.6-14.06S1108,513.16,1108,513.16Z"/><path class="cls-21" d="M1045,527.23c0,3.81,15.13,1.5,19.42.93,15.84-2.08,30.27-3.41,44.15-11.55,9.87-5.79,6.52-8.22,6.52-8.22s-8.74-3.45-12-.06c-2.1,2.19-3.26,5.42-11.39,4.19C1084.69,511,1055,527.6,1045,527.23Z"/><path class="cls-21" d="M1114.59,512c-6.24,9.19-3.73,32.93-24.32,36.53-12,2.1-22.57-8-28.42-12.84s-12.92-6.21-12.56-6.37c14-4.21,23.32,17.51,50.15,3.33,9.63-5.08,12-18.13,12.84-20C1113.4,510,1114.59,512,1114.59,512Z"/><path class="cls-16" d="M1044.09,520.59c-1-3.84-7.73-.49-7,4.59,1.12,8.37,6.36,7.88,5,6.23C1037,525.18,1045.13,524.57,1044.09,520.59Z"/><path class="cls-16" d="M1115.39,500.79c-1.08-2.72,4.37-3.67,6.18-.36,3,5.46-.33,7.45-.26,5.89C1121.57,500.43,1116.51,503.6,1115.39,500.79Z"/><path class="cls-15" d="M1578,788.19c4.63,1.37,58.07,77.88,159.75,148.85,96.11,67.09,189.17,135.11,209.82,138.23,19.46,2.94,41.48-4.51,53.4-3.59,17.59,1.36,83.8,42.79,75.54,47.54-18.51,10.67-56.33-17-74.23-12.42-12.63,3.25,41.32,8.51,24.75,19.35-5.75,3.76-84.22-3.36-98.33-5.85-57.32-10.12-174-63.13-263.21-133.49-87.49-69-155.82-111.26-156.64-114.34C1526,848.38,1563.06,801.74,1578,788.19Z"/><line class="cls-22" x1="1363.32" y1="843.96" x2="1401.8" y2="927.98"/><path class="cls-23" d="M1612.19,1105.55l-421.86-3.85S1295,826.72,1305,812s441.08,22.79,435.44,41.14C1728.64,891.58,1622.18,1099.73,1612.19,1105.55Z"/><path class="cls-24" d="M1588.25,1124.19h-605a63.47,63.47,0,0,1-52.14-27.26h0l259.25,4.77,421.86,3.85h0A24.69,24.69,0,0,1,1588.25,1124.19Z"/><path class="cls-12" d="M1219.24,1124.19c-20.8,0-28.91-13.63-28.91-22.49"/><path class="cls-20" d="M1498.37,948.84c8.06,7,7.31,28.41-6.14,43.79s-34.53,19-42.59,11.91-3.69-25.24,9.77-40.62S1490.3,941.79,1498.37,948.84Z"/><path class="cls-15" d="M1105,1028.49c-8,2.33-30.64,19.69-38.63,22-5.66-1.32,45.25-31.6,37.78-41.54-4.37-5.83-36.84,24.77-51.77,30.8-.9-3.92,39.53-30.48,34.54-34.76-8.75-7.5-68.1,38.64-87,53.9-34.63,28-312.15-21-312.15-21-7.61-12.91,26.32-46.64,62-87-33.38-26.17-57.48-49.39-79.3-74.09C634.5,912,592.18,985.6,583.12,1024.12c-13.79,58.6,27.87,81.08,69.81,90.41,50.88,11.32,291.63,17.39,351.6-.61,37.78,1,102.12-56.54,96.46-61.07-3.52-2.81-25.38,11.46-31.89,14.66,8.27-7.78,25.16-20.51,33.43-28.28C1105.19,1036.73,1108.77,1031.78,1105,1028.49Z"/></g></g><path class="cls-25" d="M241.33,911.5H454.76a7.49,7.49,0,0,1,7.43,8.38L437.66,1124.3H258.43L233.9,919.88A7.49,7.49,0,0,1,241.33,911.5Z"/><line class="cls-25" x1="235.09" y1="929.79" x2="313.02" y2="929.79"/><line class="cls-25" x1="389.39" y1="1089.24" x2="441.98" y2="1089.24"/><line class="cls-25" x1="243.51" y1="1106.38" x2="452.58" y2="1106.38"/><path class="cls-25" d="M311.54,911.5C256.85,739.64,165.79,677.71,165.79,677.71s-11.06-17-43.4-11.06S21.54,751.75,19.2,771.32c54.78-31.68,127,8.29,146.59-93.61,5.87-30.54-33-43.43-68.23-29.68-23.22,9.07-44.83,29.73-50.91,64.57"/><path class="cls-25" d="M328.34,911.5c-72.49-126.44-137-140.84-163-109.45s-22.55,64.08-22.55,64.08,69.29-50.63,65.53-64.08l-3.77-13.44"/><path class="cls-25" d="M389.39,911.5c24-178.75,85.33-269,85.33-269S495.32,603,533.15,612c32,7.58,76.88,74.65,119.8,85.17-22.49,22.45-165.09,48.3-178.23-54.62-4.26-33.34,42.6-60.63,79.65-53.2,24.44,4.9,47.88,32.14,59.92,65.39"/><path class="cls-25" d="M389.39,911.5c40.22-141,120.21-140.84,146.17-109.45s22.56,64.08,22.56,64.08,45.28-50.91,0-81.16c-20.43-13.64-46-5.4-46-5.4"/><path class="cls-25" d="M340.26,911.5C307.07,714.3,249.75,526.17,142.67,530S29.19,642.54,29.19,642.54s17.46-81.42,101.71-44C196.6,627.76,295.15,510,142.67,530"/><path class="cls-25" d="M374.51,517.84c48.38,9.56,85.6,64.21,82.05,113s-51.42,108.59-51.42,108.59S337.87,719.61,305.63,674c-44.2-62.53-11.4-143.84,14.4-170.86s82.57,93,68.61,176.74"/><path class="cls-25" d="M330,699.67c4.9,21.28,30.85,151.16,24.74,211.83"/><path class="cls-25" d="M362.69,911.5c6.28-13.09,40.65-115.32,12.4-183.92"/><path class="cls-25" d="M296.2,542.54c-1.05-22.06-55.94-178.47-55.94-178.47s1,46.95-6.4,89.24c-9.21,52.82,23.25,84.29,62.34,89.23"/><path class="cls-25" d="M264.24,400.7c29.63,29.36,54.78,84.43,43.91,118.17"/></g></g></svg>